<?xml version="1.0" encoding="UTF-8"?>
<svg id="Warstwa_2" xmlns="http://www.w3.org/2000/svg" viewBox="0 0 1024 1024">
  <defs>
    <style>
      .cls-1 {
        fill: #1d1d1b;
      }
    </style>
  </defs>
  <g>
    <path class="cls-1" d="M365.35,411.76h-162.58c-12.51,0-22.65-45.14-22.65-57.65v-12.54h207.87v12.54c0,12.51-10.14,57.65-22.65,57.65Z"/>
    <path class="cls-1" d="M205.16,686.08h167.8v42.25c0,12.5-10.15,22.65-22.65,22.65h-122.51c-12.5,0-22.65-10.15-22.65-22.65v-42.25h0Z" transform="translate(578.13 1437.05) rotate(180)"/>
    <path class="cls-1" d="M187.32,703.67h190.96c8.13,0,14.72,46.59,14.72,54.72v10.18h-220.39v-10.18c0-8.13,6.59-54.72,14.72-54.72Z"/>
    <rect class="cls-1" x="235.22" y="408.46" width="95.17" height="279.82"/>
  </g>
  <g>
    <path class="cls-1" d="M859.35,411.76h-162.58c-12.51,0-22.65-45.14-22.65-57.65v-12.54h207.87v12.54c0,12.51-10.14,57.65-22.65,57.65Z"/>
    <path class="cls-1" d="M699.16,686.08h167.8v42.25c0,12.5-10.15,22.65-22.65,22.65h-122.51c-12.5,0-22.65-10.15-22.65-22.65v-42.25h0Z" transform="translate(1566.13 1437.05) rotate(180)"/>
    <path class="cls-1" d="M681.32,703.67h190.96c8.13,0,14.72,46.59,14.72,54.72v10.18h-220.39v-10.18c0-8.13,6.59-54.72,14.72-54.72Z"/>
    <rect class="cls-1" x="729.22" y="408.46" width="95.17" height="279.82"/>
  </g>
  <path d="M868.69,803.45H174.51c-21.14,0-38.28,17.14-38.28,38.28v104.65h770.74v-104.65c0-21.14-17.14-38.28-38.28-38.28ZM852,904.6H184.61l7.39,20.4c0-16.63,12.09-20,28.71-20h607.17c16.63,0,19.11-.63,19.11,16l5-16.4Z"/>
  <path d="M907.58,239.45L524.35,47,141.12,239.45c-30.07,15.1-19.32,60.43,14.32,60.43h737.82c33.64,0,44.39-45.33,14.32-60.43ZM517.2,270.2c-50.1,0-90.71-40.61-90.71-90.71s40.61-90.71,90.71-90.71,90.71,40.61,90.71,90.71-40.61,90.71-90.71,90.71Z"/>
</svg>