<?xml version="1.0" encoding="utf-8"?>
<!-- Generator: Adobe Illustrator 28.5.0, SVG Export Plug-In . SVG Version: 9.03 Build 54727)  -->
<svg version="1.0" id="Warstwa_2" xmlns="http://www.w3.org/2000/svg" xmlns:xlink="http://www.w3.org/1999/xlink" x="0px" y="0px"
	 viewBox="0 0 1024 1024" enable-background="new 0 0 1024 1024" xml:space="preserve">
<rect x="250.39" y="638.89" fill="none" stroke="#000000" stroke-width="25" stroke-miterlimit="10" width="151.14" height="193.65"/>
<rect x="450.53" y="491.89" fill="none" stroke="#000000" stroke-width="25" stroke-miterlimit="10" width="157.04" height="341.24"/>
<rect x="659.52" y="369.09" fill="none" stroke="#000000" stroke-width="25" stroke-miterlimit="10" width="148.78" height="464.04"/>
<path d="M853.88,927H212.49c-12.98,0-23.5-10.52-23.5-23.5V895c0-12.98,10.52-23.5,23.5-23.5h641.39c12.98,0,23.5,10.52,23.5,23.5
	v8.5C877.38,916.48,866.85,927,853.88,927z"/>
<path fill="none" stroke="#D20A11" stroke-width="25" stroke-miterlimit="10" d="M176,527.13c0,0,336.52-61.24,592.15-405.13"/>
<line fill="none" stroke="#D20A11" stroke-width="25" stroke-miterlimit="10" x1="624.1" y1="122.31" x2="781.14" y2="122.31"/>
<line fill="none" stroke="#D20A11" stroke-width="25" stroke-miterlimit="10" x1="768.15" y1="110.5" x2="768.15" y2="262.82"/>
</svg>
