<?xml version="1.0" encoding="utf-8"?>
<!-- Generator: Adobe Illustrator 28.5.0, SVG Export Plug-In . SVG Version: 9.03 Build 54727)  -->
<svg version="1.0" id="Warstwa_1" xmlns="http://www.w3.org/2000/svg" xmlns:xlink="http://www.w3.org/1999/xlink" x="0px" y="0px"
	 viewBox="0 0 1024 1024" enable-background="new 0 0 1024 1024" xml:space="preserve">
<path fill="none" stroke="#000000" stroke-width="25" stroke-miterlimit="10" d="M835.05,932H184.41
	c-28.01,0-50.72-22.71-50.72-50.72V452.5c0-28.01,22.71-50.72,50.72-50.72h650.64c28.01,0,50.72,22.71,50.72,50.72v428.77
	C885.77,909.29,863.06,932,835.05,932z"/>
<rect x="189.15" y="461" fill="none" stroke="#000000" stroke-width="25" stroke-miterlimit="10" width="636.45" height="409.89"/>
<line fill="none" stroke="#000000" stroke-width="25" stroke-miterlimit="10" x1="418.54" y1="612.36" x2="323.23" y2="328.08"/>
<line fill="none" stroke="#000000" stroke-width="25" stroke-miterlimit="10" x1="168.47" y1="249.48" x2="329.23" y2="333.15"/>
<line fill="none" stroke="#000000" stroke-width="25" stroke-miterlimit="10" x1="526.65" y1="612.36" x2="526.65" y2="311.53"/>
<line fill="none" stroke="#000000" stroke-width="25" stroke-miterlimit="10" x1="276.58" y1="303.07" x2="344.27" y2="154.53"/>
<line fill="none" stroke="#000000" stroke-width="25" stroke-miterlimit="10" x1="621.6" y1="612.36" x2="825.61" y2="272.98"/>
<line fill="none" stroke="#000000" stroke-width="25" stroke-miterlimit="10" x1="806.8" y1="304.95" x2="678.01" y2="160.17"/>
<line fill="none" stroke="#000000" stroke-width="25" stroke-miterlimit="10" x1="821.85" y1="275.8" x2="873.55" y2="237.26"/>
<circle fill="none" stroke="#000000" stroke-width="25" stroke-miterlimit="10" cx="134.63" cy="230.68" r="45.13"/>
<circle fill="none" stroke="#000000" stroke-width="25" stroke-miterlimit="10" cx="359.31" cy="121.63" r="45.13"/>
<circle fill="none" stroke="#000000" stroke-width="25" stroke-miterlimit="10" cx="526.65" cy="269.22" r="45.13"/>
<circle fill="none" stroke="#000000" stroke-width="25" stroke-miterlimit="10" cx="650.75" cy="129.15" r="45.13"/>
<circle fill="none" stroke="#000000" stroke-width="25" stroke-miterlimit="10" cx="915.86" cy="209.06" r="45.13"/>
<path fill="none" stroke="#000000" stroke-width="25" stroke-miterlimit="10" d="M701.68,759.02H329.99
	c-20.67,0-37.43-16.76-37.43-37.43v-71.8c0-20.67,16.76-37.43,37.43-37.43h371.69c20.67,0,37.43,16.76,37.43,37.43v71.8
	C739.12,742.26,722.36,759.02,701.68,759.02z"/>
<circle fill="none" stroke="#000000" stroke-width="25" stroke-miterlimit="10" cx="386.1" cy="688.04" r="12.69"/>
<circle fill="none" stroke="#000000" stroke-width="25" stroke-miterlimit="10" cx="524.77" cy="688.04" r="12.69"/>
<circle fill="none" stroke="#000000" stroke-width="25" stroke-miterlimit="10" cx="663.44" cy="688.04" r="12.69"/>
</svg>
