<?xml version="1.0" encoding="UTF-8"?>
<svg xmlns="http://www.w3.org/2000/svg" viewBox="0 0 1024 1024">
  <defs>
    <style>
      .cls-1 {
        fill: #1d1d1b;
      }
    </style>
  </defs>
  <g id="Warstwa_8">
    <path class="cls-1" d="M248.4,351c0,49.71-39.49,90-88.2,90s-88.2-40.29-88.2-90c0,0,176.4,0,176.4,0Z"/>
    <path class="cls-1" d="M424.8,351c0,49.71-39.49,90-88.2,90s-88.2-40.29-88.2-90c0,0,176.4,0,176.4,0Z"/>
    <path class="cls-1" d="M601.2,351c0,49.71-39.49,90-88.2,90s-88.2-40.29-88.2-90c0,0,176.4,0,176.4,0Z"/>
    <path class="cls-1" d="M777.6,351c0,49.71-39.49,90-88.2,90s-88.2-40.29-88.2-90c0,0,176.4,0,176.4,0Z"/>
    <path class="cls-1" d="M954,351c0,49.71-39.49,90-88.2,90s-88.2-40.29-88.2-90c0,0,176.4,0,176.4,0Z"/>
    <path class="cls-1" d="M810,72H216l-144,243h882l-144-243ZM738,216h-450v-63h450v63Z"/>
  </g>
  <g id="Warstwa_10">
    <g>
      <path class="cls-1" d="M195.59,552.83l-.02,72.3h-44.53s-.05,216.9-.05,216.9h-52.21s.05-216.92.05-216.92h-44.53s.02-72.31.02-72.31l141.28.03Z"/>
      <path class="cls-1" d="M397.5,693.59c-.02,92.33-37.27,152.39-94.86,152.37-56.82-.01-94.04-57.31-94.03-145.74.02-91.77,37.65-151.27,96.01-151.26,56.43.01,92.89,56.75,92.88,144.63ZM343.75,696.92c0-45.61-15.34-74.53-39.91-74.54s-41.47,29.47-41.48,76.19,15.72,73.98,41.06,73.98c24.57,0,40.32-28.91,40.33-75.63Z"/>
      <path class="cls-1" d="M432.85,552.88h52.59c28.41.02,112.48.03,112.45,142.97-.03,146.27-79.88,146.26-109.83,146.25h-55.28s.06-289.22.06-289.22ZM485.05,624.64l-.03,145.72h3.84c25.34,0,55.28.01,55.3-74.52.01-71.19-33.77-71.2-57.96-71.2h-1.15Z"/>
      <path class="cls-1" d="M682.01,552.93h66.42s57.91,289.24,57.91,289.24h-54.13s-4.98-27.26-4.98-27.26h-64.5s-5,27.24-5,27.24h-54.13s58.41-289.21,58.41-289.21ZM734.95,748.72l-19.94-111.24-20.37,111.23h40.31Z"/>
      <path class="cls-1" d="M963.03,552.99l-54.93,171.85-.02,117.35h-52.21s.02-117.36.02-117.36l-54.86-171.87h54.9s26.09,85.11,26.09,85.11l26.12-85.09h54.9Z"/>
    </g>
  </g>
</svg>