<?xml version="1.0" encoding="UTF-8"?>
<svg xmlns="http://www.w3.org/2000/svg" viewBox="0 0 1024 1024">
  <defs>
    <style>
      .cls-1 {
        fill: #1d1d1b;
      }
    </style>
  </defs>
  <g id="Warstwa_5">
    <path d="M129.53,324h178.47v382h-178.47c-14.09,0-25.53-11.44-25.53-25.53v-330.94c0-14.09,11.44-25.53,25.53-25.53Z"/>
    <path d="M589.01,885.89l-237.61-166.32c-1.85-1.29-3.91-2.21-6.02-3-2.55-.95-4.37-3.41-4.37-6.29v-393.57c0-2.88,1.82-5.34,4.37-6.29,2.72-1.01,5.19-2.59,7.49-4.35l235.16-179.39c18.94-14.45,46.87-2.05,47.94,21.75.02.52.03,1.03.03,1.56v711.04c0,2.64-.3,5.21-.87,7.67-4.71,20.4-28.97,29.2-46.12,17.2Z"/>
  </g>
  <g id="Warstwa_6">
    <rect class="cls-1" x="-45.65" y="483.5" width="1122.29" height="58" rx="29" ry="29" transform="translate(-209.27 456.77) rotate(-40.44)"/>
    <rect class="cls-1" x="486.5" y="-48.65" width="58" height="1122.29" rx="29" ry="29" transform="translate(-208.93 572.45) rotate(-49.56)"/>
  </g>
</svg>