<?xml version="1.0" encoding="UTF-8"?>
<svg id="Warstwa_5" xmlns="http://www.w3.org/2000/svg" viewBox="0 0 1024 1024">
  <defs>
    <style>
      .cls-1 {
        fill: #1d1d1b;
      }
    </style>
  </defs>
  <path d="M129.53,324h178.47v382h-178.47c-14.09,0-25.53-11.44-25.53-25.53v-330.94c0-14.09,11.44-25.53,25.53-25.53Z"/>
  <path d="M589.01,885.89l-237.61-166.32c-1.85-1.29-3.91-2.21-6.02-3-2.55-.95-4.37-3.41-4.37-6.29v-393.57c0-2.88,1.82-5.34,4.37-6.29,2.72-1.01,5.19-2.59,7.49-4.35l235.16-179.39c18.94-14.45,46.87-2.05,47.94,21.75.02.52.03,1.03.03,1.56v711.04c0,2.64-.3,5.21-.87,7.67-4.71,20.4-28.97,29.2-46.12,17.2Z"/>
  <path class="cls-1" d="M749.03,633.15l-.22-.17c-8.54-6.84-10.44-18.97-4.61-28.23,23.5-37.28,29.45-80.39,17.69-128.45-5.92-24.18-15.25-44.56-22.29-57.78-5.09-9.56-2.28-21.41,6.6-27.6l.26-.18c10.5-7.32,25.03-3.83,31.06,7.46,8.23,15.44,18.8,38.62,25.76,66.37,15.03,59.88,7.08,115.89-22.91,163.41-6.78,10.73-21.44,13.11-31.35,5.17Z"/>
  <path class="cls-1" d="M849.79,718.54h0c-8.31-7.71-9.2-20.56-2.03-29.34,56.09-68.7,77.49-150.89,51.76-240.65-14.4-50.21-39.56-88.89-53.79-110.08-6.21-9.25-4.34-21.7,4.32-28.71l.04-.03c9.8-7.93,24.3-5.77,31.35,4.69,15.91,23.61,42.94,65.6,59.01,120.85,14.23,48.93,11.68,98.57,4.25,143.6-8.19,49.62-29.58,95.81-63.68,137.6-7.82,9.58-22.15,10.49-31.22,2.08Z"/>
</svg>