<?xml version="1.0" encoding="UTF-8"?>
<svg id="Warstwa_1" xmlns="http://www.w3.org/2000/svg" viewBox="0 0 1024 1024">
  <defs>
    <style>
      .cls-1 {
        fill: #e52421;
        stroke: #e52421;
        stroke-miterlimit: 10;
        stroke-width: 55px;
      }
    </style>
  </defs>
  <path class="cls-1" d="M694.98,503.5l172.18-172.18c23.71-23.7,36.76-55.22,36.76-88.74s-13.05-65.04-36.76-88.74c-48.93-48.94-128.55-48.94-177.48,0l-172.18,172.18-172.18-172.18c-23.7-23.71-55.22-36.76-88.74-36.76s-65.04,13.05-88.74,36.76c-23.71,23.7-36.76,55.22-36.76,88.74s13.05,65.04,36.76,88.74l172.18,172.18-172.18,172.18c-48.94,48.93-48.94,128.55,0,177.48,23.7,23.71,55.22,36.76,88.74,36.76s65.04-13.05,88.74-36.76l172.18-172.18,172.18,172.18c24.47,24.47,56.6,36.7,88.74,36.7s64.28-12.23,88.74-36.7c48.94-48.93,48.94-128.55,0-177.48l-172.18-172.18ZM842.42,828.42c-35.29,35.28-92.7,35.28-127.99,0l-172.18-172.18-24.75-24.75-24.74,24.75-172.19,172.18c-17.09,17.09-39.82,26.5-63.99,26.5s-46.9-9.41-64-26.5c-35.28-35.29-35.28-92.71,0-127.99l172.19-172.18,24.74-24.75-24.74-24.74-172.19-172.19c-17.09-17.09-26.5-39.82-26.5-63.99s9.41-46.9,26.5-64c17.1-17.09,39.82-26.5,64-26.5s46.9,9.41,63.99,26.5l172.19,172.19,24.74,24.74,24.75-24.74,172.18-172.19c17.64-17.64,40.82-26.46,63.99-26.46s46.35,8.82,64,26.46c17.09,17.1,26.5,39.82,26.5,64s-9.41,46.9-26.5,63.99l-172.18,172.19-24.75,24.74,24.75,24.75,172.18,172.18c35.28,35.28,35.28,92.7,0,127.99Z"/>
</svg>