<?xml version="1.0" encoding="UTF-8"?>
<svg id="Warstwa_6" xmlns="http://www.w3.org/2000/svg" viewBox="0 0 1024 1024">
  <defs>
    <style>
      .cls-1 {
        fill: #ffffff;
        stroke: #010101;
        stroke-miterlimit: 10;
      }
    </style>
  </defs>
  <g>
    <path class="cls-1" d="M391.96,374.28c-5.56-27.51-25.9-44.41-46.43-38.59l-126.33,35.81c-5.31,1.51-10.81,1.51-16.13.02l-125.46-35.22c-20.75-5.83-41.21,11.53-46.46,39.44l-11.16,59.33c-6.43,34.19,12.6,67.47,38.56,67.43l307.25-.5c26.19-.04,45.15-33.92,38.19-68.26l-12.03-59.46Z"/>
    <path class="cls-1" d="M211.52,108.43c-59.24.1-107.19,48.2-107.09,107.44.1,59.25,48.2,107.19,107.44,107.1,59.25-.1,107.19-48.2,107.1-107.45-.1-59.24-48.2-107.19-107.45-107.09Z"/>
  </g>
  <g>
    <path class="cls-1" d="M992.96,374.28c-5.56-27.51-25.9-44.41-46.43-38.59l-126.33,35.81c-5.31,1.51-10.81,1.51-16.13.02l-125.46-35.22c-20.75-5.83-41.21,11.53-46.46,39.44l-11.16,59.33c-6.43,34.19,12.6,67.47,38.56,67.43l307.25-.5c26.19-.04,45.15-33.92,38.19-68.26l-12.03-59.46Z"/>
    <path class="cls-1" d="M812.52,108.43c-59.24.1-107.19,48.2-107.09,107.44.1,59.25,48.2,107.19,107.44,107.1,59.25-.1,107.19-48.2,107.1-107.45-.1-59.24-48.2-107.19-107.45-107.09Z"/>
  </g>
  <g>
    <path class="cls-1" d="M692.96,815.28c-5.56-27.51-25.9-44.41-46.43-38.59l-126.33,35.81c-5.31,1.51-10.81,1.51-16.13.02l-125.46-35.22c-20.75-5.83-41.21,11.53-46.46,39.44l-11.16,59.33c-6.43,34.19,12.6,67.47,38.56,67.43l307.25-.5c26.19-.04,45.15-33.92,38.19-68.26l-12.03-59.46Z"/>
    <path class="cls-1" d="M512.52,549.43c-59.24.1-107.19,48.2-107.09,107.44.1,59.25,48.2,107.19,107.44,107.1,59.25-.1,107.19-48.2,107.1-107.45-.1-59.24-48.2-107.19-107.45-107.09Z"/>
  </g>
</svg>