<?xml version="1.0" encoding="utf-8"?>
<!-- Generator: Adobe Illustrator 28.5.0, SVG Export Plug-In . SVG Version: 9.03 Build 54727)  -->
<svg version="1.0" id="Warstwa_1" xmlns="http://www.w3.org/2000/svg" xmlns:xlink="http://www.w3.org/1999/xlink" x="0px" y="0px"
	 viewBox="0 0 1024 1024" enable-background="new 0 0 1024 1024" xml:space="preserve">
<path display="none" fill="#FFD208" d="M931.65,394.67h-321L511.46,89.39C508.7,80.86,501.41,76.5,494,76.27v679.78l259.07,188.23
	c14.9,10.83,34.95-3.74,29.26-21.26l-99.19-305.29l259.69-188.68C957.73,418.24,950.07,394.67,931.65,394.67z"/>
<path display="none" fill="#F9B119" d="M739.06,457.68H559.32l-55.54-170.94c-1.55-4.77-5.63-7.21-9.78-7.34v380.64l145.07,105.4
	c8.34,6.06,19.57-2.09,16.38-11.9l-55.54-170.94l145.41-105.65C753.66,470.87,749.38,457.68,739.06,457.68z"/>
<path fill="#FFD208" d="M56.05,394.67h321l99.19-305.29c2.77-8.52,10.06-12.88,17.46-13.11v679.78L234.63,944.28
	c-14.9,10.83-34.95-3.74-29.26-21.26l99.19-305.29L44.87,429.06C29.97,418.24,37.63,394.67,56.05,394.67z"/>
<path fill="#F9B119" d="M248.64,457.68h179.74l55.54-170.94c1.55-4.77,5.63-7.21,9.78-7.34v380.64l-145.07,105.4
	c-8.34,6.06-19.57-2.09-16.38-11.9l55.54-170.94L242.38,476.93C234.04,470.87,238.33,457.68,248.64,457.68z"/>
</svg>
