<?xml version="1.0" encoding="UTF-8"?>
<svg id="Warstwa_3" xmlns="http://www.w3.org/2000/svg" viewBox="0 0 1024 1024">
  <defs>
    <style>
      .cls-1 {
        fill: none;
        stroke: #1d1d1b;
        stroke-miterlimit: 10;
        stroke-width: 35px;
      }
    </style>
  </defs>
  <path class="cls-1" d="M776.21,170.5v780H228.71V170.5h201.79v31h-25.79c-37.67,0-68.21,30.54-68.21,68.21v8.79h332v-8.79c0-37.67-30.54-68.21-68.21-68.21h-24.79v-31h200.71Z"/>
  <path class="cls-1" d="M668.5,269.71v8.79h-332v-8.79c0-1.01.02-2.01.07-3,1.57-36.28,31.48-65.21,68.14-65.21h25.79v-54h7.67l29.84-87h65.33l32.47,87h9.69v54h24.79c29.52,0,54.67,18.76,64.16,45.01,2.62,7.24,4.05,15.05,4.05,23.2Z"/>
  <line class="cls-1" x1="459.5" y1="223.5" x2="548.5" y2="223.5"/>
  <ellipse class="cls-1" cx="503" cy="109.5" rx="8.5" ry="12"/>
  <polygon class="cls-1" points="403.82 891.76 326.2 896.54 325.38 883.2 403.82 891.76"/>
  <path class="cls-1" d="M736.42,871.27l-60.19,3.71-272.41,16.78-78.44-8.56-22.91-371.75-14.89-241.72,41.56-2.56,7.43-.46c-.05.99-.07,1.99-.07,3v8.79h332v-8.79c0-8.15-1.43-15.96-4.05-23.2l33.35-2.05,2.96,47.98,14.09,228.74,21.57,350.09Z"/>
  <polygon class="cls-1" points="325.38 883.2 262.64 876.35 302.47 511.45 325.38 883.2"/>
  <polygon class="cls-1" points="676.23 874.98 671.21 920.94 403.82 891.76 676.23 874.98"/>
  <polygon class="cls-1" points="739.36 296.65 714.85 521.18 700.76 292.44 739.36 296.65"/>
  <line class="cls-1" x1="357.5" y1="415.5" x2="575.72" y2="401.8"/>
  <line class="cls-1" x1="599.5" y1="400.25" x2="660.5" y2="396.5"/>
  <line class="cls-1" x1="364.06" y1="523.09" x2="663.5" y2="503.5"/>
  <line class="cls-1" x1="374.25" y1="631.62" x2="490.31" y2="624.08"/>
  <line class="cls-1" x1="573.37" y1="619.07" x2="672.5" y2="612.5"/>
  <line class="cls-1" x1="383.79" y1="739.5" x2="679.5" y2="719.5"/>
</svg>