<?xml version="1.0" encoding="utf-8"?>
<!-- Generator: Adobe Illustrator 28.5.0, SVG Export Plug-In . SVG Version: 9.03 Build 54727)  -->
<svg version="1.0" id="Warstwa_2" xmlns="http://www.w3.org/2000/svg" xmlns:xlink="http://www.w3.org/1999/xlink" x="0px" y="0px"
	 viewBox="0 0 1024 1024" enable-background="new 0 0 1024 1024" xml:space="preserve">
<path fill="none" stroke="#000000" stroke-width="25" stroke-miterlimit="10" d="M909.03,813H124.97C98.47,813,77,791.53,77,765.03
	V177.97C77,151.47,98.47,130,124.97,130h784.07c26.49,0,47.97,21.47,47.97,47.97v587.07C957,791.53,935.53,813,909.03,813z"/>
<rect x="143.5" y="186.5" fill="none" stroke="#000000" stroke-width="25" stroke-miterlimit="10" width="753" height="572"/>
<g>
	<circle cx="525" cy="301" r="52"/>
	<circle cx="505.5" cy="439.5" r="59.5"/>
	<circle cx="505.5" cy="633.5" r="59.5"/>
	<polygon points="448,618 524,618 561,464 485,464 	"/>
</g>
<rect x="224" y="820" width="84" height="124"/>
<rect x="744" y="820" width="84" height="124"/>
</svg>
