<?xml version="1.0" encoding="UTF-8"?>
<svg id="Warstwa_3" xmlns="http://www.w3.org/2000/svg" viewBox="0 0 1024 1024">
  <defs>
    <style>
      .cls-1 {
        fill: #1d1d1b;
      }

      .cls-2 {
        fill: none;
      }
    </style>
  </defs>
  <g>
    <polygon class="cls-2" points="55.6 770 181.77 769 109.68 324.47 55.6 770"/>
    <polygon class="cls-2" points="855.54 283 129.6 283 220.54 821 946.47 821 855.54 283"/>
    <path d="M878.54,253H97.83L16.47,800l170.53-2,10.54,53h788.06l-107.06-598ZM55.6,770l54.08-445.53,72.08,444.53-126.16,1ZM129.6,283h725.94l90.94,538H220.54l-90.94-538Z"/>
  </g>
  <g>
    <path class="cls-1" d="M220.76,406.98c12.67-.07,22.66,3.11,29.98,9.52,7.31,6.42,12.14,15.46,14.48,27.14,2.33,11.59,1.07,20.67-3.77,27.24-4.84,6.57-13.41,9.89-25.7,9.95l-18.04.1,10,49.8-23.42.13-24.82-123.66,41.3-.22ZM230.98,461.63c4.47-.02,7.82-1.46,10.04-4.31,2.22-2.85,2.71-7.32,1.49-13.42-1.17-5.84-3.48-10.27-6.92-13.31-3.44-3.03-7.4-4.54-11.88-4.52l-16.99.09,7.14,35.56,17.12-.09Z"/>
    <path class="cls-1" d="M313.63,406.49c12.67-.07,22.66,3.11,29.98,9.52,7.31,6.42,12.14,15.46,14.48,27.14,1.59,7.93,1.56,14.69-.1,20.28-1.66,5.59-5.03,9.84-10.09,12.75l33.65,53.73-23.79.13-31.18-49.69-18.04.1,10,49.8-23.42.13-24.82-123.66,43.35-.23ZM323.85,461.13c4.47-.02,7.82-1.46,10.04-4.31,2.22-2.85,2.71-7.32,1.49-13.42-1.17-5.84-3.48-10.27-6.92-13.31-3.44-3.03-7.4-4.54-11.88-4.52l-19.04.1,7.14,35.56,19.18-.1Z"/>
    <path class="cls-1" d="M408.51,404.67c8.04-.04,15,.92,20.88,2.9,5.88,1.98,11,5.39,15.36,10.26,4.27,4.86,7.92,11.36,10.98,19.5,3.05,8.14,5.81,18.36,8.28,30.64,2.48,12.38,3.84,22.66,4.07,30.86.23,8.2-.81,14.75-3.12,19.65-2.4,4.9-6.14,8.36-11.22,10.4-5.08,2.03-11.64,3.07-19.67,3.11-8.13.04-15.11-.94-20.96-2.96-5.85-2.02-10.95-5.46-15.31-10.32-4.38-4.95-8.09-11.52-11.15-19.7-3.06-8.18-5.82-18.42-8.29-30.71-2.47-12.29-3.79-22.51-3.96-30.67-.18-8.16.94-14.68,3.34-19.58,2.33-4.81,6.03-8.23,11.1-10.27,5.08-2.03,11.63-3.07,19.67-3.12ZM430.07,512.78c3.38-.02,6.17-.6,8.36-1.75,2.19-1.15,3.79-3.34,4.79-6.57.9-3.23,1.16-7.77.76-13.61-.4-5.84-1.53-13.43-3.4-22.75-1.85-9.24-3.7-16.75-5.55-22.54-1.85-5.79-3.83-10.3-5.94-13.51-2.2-3.22-4.64-5.38-7.34-6.5-2.69-1.12-5.82-1.67-9.38-1.65-3.56.02-6.46.6-8.7,1.75-2.24,1.15-3.81,3.34-4.72,6.57-1,3.23-1.28,7.73-.86,13.48.42,5.76,1.56,13.25,3.42,22.49,1.87,9.33,3.8,16.91,5.8,22.74,2,5.83,4.14,10.36,6.43,13.57,2.31,3.3,4.79,5.51,7.43,6.63,2.65,1.12,5.62,1.67,8.9,1.65Z"/>
    <path class="cls-1" d="M508.91,405.44c10.04-.05,18.44,1.36,25.19,4.25,6.75,2.89,12.36,7.02,16.82,12.41,4.37,5.39,7.89,11.87,10.55,19.44,2.66,7.58,4.93,16.03,6.8,25.35,1.92,9.59,3.08,18.2,3.47,25.83.39,7.63-.52,14.16-2.72,19.58-2.31,5.33-6.26,9.46-11.85,12.36-5.59,2.91-13.4,4.39-23.45,4.44l-38.49.21-24.82-123.66,38.49-.21ZM531.68,510.01c7.85-.04,12.81-3.49,14.86-10.35,2.05-6.86,1.58-17.74-1.41-32.64-2.94-14.64-6.95-25.39-12.03-32.26-5.08-6.86-11.82-10.27-20.22-10.23l-15.34.08,17.16,85.49,16.99-.09Z"/>
    <path class="cls-1" d="M612.91,494.52c1.21,6.01,3.92,10.4,8.13,13.17,4.21,2.77,9.1,4.14,14.67,4.11,2.74-.01,5.23-.36,7.47-1.02,2.24-.67,4.09-1.7,5.55-3.1,1.44-1.49,2.44-3.31,3.02-5.45.58-2.14.56-4.73-.05-7.79l-18-89.67,23.43-.13,17.55,87.45c1.45,7.23,1.59,13.29.43,18.19-1.17,4.89-3.36,8.87-6.58,11.94-3.22,3.07-7.33,5.27-12.32,6.61-4.99,1.34-10.54,2.02-16.66,2.05-6.21.03-12.05-.61-17.53-1.93-5.48-1.32-10.39-3.5-14.75-6.53-4.45-3.03-8.24-7-11.37-11.91-3.14-4.91-5.42-10.94-6.85-18.09l-17.53-87.32,23.42-.13,17.97,89.54Z"/>
    <path class="cls-1" d="M688.17,466.38c-2.47-12.29-3.76-22.49-3.88-30.6-.12-8.11,1.07-14.57,3.58-19.39,2.51-4.81,6.4-8.21,11.67-10.2,5.27-1.99,12.01-3.01,20.23-3.05,8.13-.04,14.97,1.03,20.53,3.23,5.56,2.19,10.17,5.11,13.83,8.76,3.68,3.73,6.63,7.99,8.87,12.78,2.24,4.79,4.14,9.71,5.7,14.76l-23.01.12c-2.44-7.58-5.44-12.88-9.02-15.92-3.58-3.03-8.02-4.54-13.32-4.51-3.47.02-6.41.51-8.82,1.49-2.41.97-4.18,2.99-5.3,6.05-1.11,3.15-1.51,7.6-1.23,13.35.28,5.76,1.39,13.43,3.32,23.01,1.91,9.5,3.88,17.17,5.92,23,2.04,5.83,4.25,10.36,6.63,13.57,2.38,3.21,4.99,5.38,7.82,6.5,2.83,1.12,5.98,1.67,9.45,1.65,2.74-.01,5.1-.42,7.09-1.22,1.99-.8,3.57-2.11,4.76-3.95,1.18-1.84,1.97-4.28,2.37-7.34.39-3.05.36-6.85-.09-11.38l23.01-.12c.64,5.93.87,11.51.69,16.75-.18,5.24-1.39,9.82-3.61,13.76-2.23,3.94-5.72,7.05-10.47,9.35-4.75,2.29-11.28,3.46-19.59,3.51-8.4.05-15.63-.9-21.69-2.83-6.06-1.93-11.27-5.33-15.62-10.19-4.47-4.95-8.26-11.54-11.37-19.76-3.12-8.23-5.93-18.62-8.45-31.17Z"/>
    <path class="cls-1" d="M848.28,527.55l-23.43.13-21.02-104.71-35.07.19-3.83-19.08,93.84-.5,3.83,19.08-35.34.19,21.02,104.71Z"/>
    <path class="cls-1" d="M428.44,563.03l24.8,123.53-29.78.16-61.61-89.96,18.1,90.2-22.74.12-24.8-123.53,30.55-.16,60.56,88.53-17.82-88.76,22.74-.12Z"/>
    <path class="cls-1" d="M535.28,659.43l-45.34.24-3.69,26.71-23.01.12,18.19-123.89,23.56-.13,67.7,123.43-22.74.12-14.67-26.62ZM492.49,640.95l32.6-.17-26.01-47.62-6.59,47.8Z"/>
    <path class="cls-1" d="M669.37,561.61l24.82,123.66-22.33.12-15.43-76.86-6.9,76.98-24.38.13-37.86-77.27,15.53,77.39-22.33.12-24.82-123.66,32.05-.17,42.96,89.67,6.36-89.93,32.33-.17Z"/>
    <path class="cls-1" d="M764.99,561.1l3.83,19.08-52.74.28,6.66,33.2,49.73-.27,3.86,19.22-49.73.27,6.66,33.2,54.25-.29,3.83,19.09-77.26.41-24.85-123.79,75.75-.41Z"/>
  </g>
</svg>