<?xml version="1.0" encoding="utf-8"?>
<!-- Generator: Adobe Illustrator 28.5.0, SVG Export Plug-In . SVG Version: 9.03 Build 54727)  -->
<svg version="1.0" id="Warstwa_2" xmlns="http://www.w3.org/2000/svg" xmlns:xlink="http://www.w3.org/1999/xlink" x="0px" y="0px"
	 viewBox="0 0 1024 1024" enable-background="new 0 0 1024 1024" xml:space="preserve">
<g>
	<polygon fill="none" stroke="#000000" stroke-width="25" stroke-miterlimit="10" points="827,805 654,805 654,769 817.5,769.38 	
		"/>
	<rect x="667.5" y="630.5" fill="none" stroke="#000000" stroke-width="25" stroke-miterlimit="10" width="132" height="139"/>
	<line fill="none" stroke="#000000" stroke-width="25" stroke-miterlimit="10" x1="735.5" y1="629" x2="735.5" y2="778"/>
</g>
<g>
	<polygon fill="none" stroke="#000000" stroke-width="25" stroke-miterlimit="10" points="214,805 387,805 387,769 223.5,769.38 	
		"/>
	
		<rect x="241.5" y="630.5" transform="matrix(-1 -4.489621e-11 4.489621e-11 -1 615 1400)" fill="none" stroke="#000000" stroke-width="25" stroke-miterlimit="10" width="132" height="139"/>
	<line fill="none" stroke="#000000" stroke-width="25" stroke-miterlimit="10" x1="305.5" y1="629" x2="305.5" y2="778"/>
</g>
<path fill="none" stroke="#000000" stroke-width="25" stroke-miterlimit="10" d="M940,850.5H97c-8.01,0-14.5,6.49-14.5,14.5l0,0
	c0,8.01,6.49,14.5,14.5,14.5h843c8.01,0,14.5-6.49,14.5-14.5l0,0C954.5,856.99,948.01,850.5,940,850.5z"/>
<rect x="417.5" y="813.5" fill="none" stroke="#000000" stroke-width="25" stroke-miterlimit="10" width="205" height="29"/>
<rect x="496.5" y="630.5" fill="none" stroke="#000000" stroke-width="25" stroke-miterlimit="10" width="57" height="189"/>
<line fill="none" stroke="#000000" stroke-width="25" stroke-miterlimit="10" x1="603.5" y1="630.5" x2="603.5" y2="804.5"/>
<line fill="none" stroke="#000000" stroke-width="25" stroke-miterlimit="10" x1="438.5" y1="630.5" x2="438.5" y2="809.5"/>
<line fill="none" stroke="#000000" stroke-width="25" stroke-miterlimit="10" x1="183.5" y1="588.5" x2="856.5" y2="588.5"/>
<path fill="none" stroke="#000000" stroke-width="25" stroke-miterlimit="10" d="M794.5,588.5h-553v0c0-44.18,35.82-80,80-80h393
	C758.68,508.5,794.5,544.32,794.5,588.5L794.5,588.5z"/>
<line fill="none" stroke="#000000" stroke-width="25" stroke-miterlimit="10" x1="394.5" y1="590.5" x2="517.5" y2="508.5"/>
<line fill="none" stroke="#000000" stroke-width="25" stroke-miterlimit="10" x1="521.5" y1="508.5" x2="643.5" y2="588.5"/>
<rect x="433.5" y="373.5" fill="none" stroke="#000000" stroke-width="25" stroke-miterlimit="10" width="170" height="135"/>
<line fill="none" stroke="#000000" stroke-width="25" stroke-miterlimit="10" x1="489.5" y1="370" x2="489.5" y2="505"/>
<line fill="none" stroke="#000000" stroke-width="25" stroke-miterlimit="10" x1="549.5" y1="371" x2="549.5" y2="513"/>
<line fill="none" stroke="#000000" stroke-width="25" stroke-miterlimit="10" x1="433.5" y1="441.5" x2="603.5" y2="441.5"/>
<line fill="none" stroke="#000000" stroke-width="25" stroke-miterlimit="10" x1="399.5" y1="337.5" x2="636.5" y2="337.5"/>
<path fill="none" stroke="#000000" stroke-width="25" stroke-miterlimit="10" d="M593.5,301.5h-146v0c0-23.75,19.25-43,43-43h60
	C574.25,258.5,593.5,277.75,593.5,301.5L593.5,301.5z"/>
<polyline fill="none" stroke="#000000" stroke-width="25" stroke-miterlimit="10" points="513.5,263.5 513.5,140.09 513.5,119 "/>
<path fill="none" stroke="#000000" stroke-width="25" stroke-miterlimit="10" d="M574.5,148.53c28-6.65,76,5.99,76,5.99V206
	c0,0-34-21.46-68-14.18s-44.73,16.3-55.37,12.79s0-51.15,0-51.15L574.5,148.53z"/>
</svg>
