<?xml version="1.0" encoding="utf-8"?>
<!-- Generator: Adobe Illustrator 28.5.0, SVG Export Plug-In . SVG Version: 9.03 Build 54727)  -->
<svg version="1.0" id="Warstwa_2" xmlns="http://www.w3.org/2000/svg" xmlns:xlink="http://www.w3.org/1999/xlink" x="0px" y="0px"
	 viewBox="0 0 1024 1024" enable-background="new 0 0 1024 1024" xml:space="preserve">
<g>
	<path fill="none" d="M245.97,447.26h549.16c-37.14-12.41-88.95-26.97-149.94-36.68C542.8,394.27,394.98,389.06,245.97,447.26z"/>
	<rect x="535" y="659" fill="none" width="67" height="148"/>
	<rect x="817" y="727" fill="none" width="71" height="41"/>
	<path fill="none" d="M588.59,334.58c-2.4-9.67-6.18-23.91-11.16-39.58H468.83c-4.41,15.31-7.77,29.37-10.01,39.44
		C502.23,331.51,545.6,331.55,588.59,334.58z"/>
	<rect x="817" y="566" fill="none" width="71" height="45"/>
	<rect x="308" y="659" fill="none" width="110" height="148"/>
	<rect x="817" y="636" fill="none" width="71" height="66"/>
	<rect x="443" y="659" fill="none" width="67" height="148"/>
	<rect x="627" y="659" fill="none" width="110" height="148"/>
	<path fill="none" d="M283,634h479v173.5h158.5v-292h-792v292H283V634z M792,541h121v252H792V541z M659,534h48v58h-48V534z
		 M576.75,534h48v58h-48V534z M494.5,534h48v58h-48V534z M412.25,534h48v58h-48V534z M330,534h48v58h-48V534z M146,793V541h121v252
		H146z"/>
	<rect x="171" y="727" fill="none" width="71" height="41"/>
	<rect x="171" y="636" fill="none" width="71" height="66"/>
	<rect x="171" y="566" fill="none" width="71" height="45"/>
	<path d="M945.5,808V490.5h-842V808h-19v25h879v-25H945.5z M737,807H627V659h110V807z M602,807h-67V659h67V807z M510,807h-67V659h67
		V807z M418,807H308V659h110V807z M128.5,515.5h792v292H762V634H283v173.5H128.5V515.5z"/>
	<path d="M146,541v252h121V541H146z M242,566v45h-71v-45H242z M242,636v66h-71v-66H242z M171,768v-41h71v41H171z"/>
	<path d="M913,541H792v252h121V541z M888,566v45h-71v-45H888z M888,636v66h-71v-66H888z M817,768v-41h71v41H817z"/>
	<rect x="330" y="534" width="48" height="58"/>
	<rect x="412.25" y="534" width="48" height="58"/>
	<rect x="494.5" y="534" width="48" height="58"/>
	<rect x="576.75" y="534" width="48" height="58"/>
	<rect x="659" y="534" width="48" height="58"/>
	<path d="M867.91,448.45c-3.61-1.7-89.86-41.93-217.99-62.44c-75.28-12.05-149.31-14.67-220.03-7.77
		c-88.6,8.64-172.21,32.3-248.5,70.33l-47.52,23.69h784.5L867.91,448.45z M245.97,447.26c149-58.19,296.83-52.99,399.22-36.68
		c60.99,9.71,112.8,24.28,149.94,36.68H245.97z"/>
	<path d="M378.42,368.59c124.7-19.55,316.54-22.95,522.29,71.86l10.46-22.71c-93.53-43.1-192.1-70.21-292.97-80.6
		c-1.12-0.12-2.24-0.22-3.36-0.33c-2.77-11.96-10.22-42.08-21.64-72.83c-21.12-56.84-44.18-85.09-70.49-86.36
		c-27.09-1.31-50.11,26.93-70.35,86.33c-10,29.35-16.62,58.45-19.57,72.62c-19.75,1.88-39.5,4.37-59.21,7.48
		c-139.17,21.96-227.09,66.45-230.77,68.33l11.39,22.25C155.07,434.18,242.94,389.83,378.42,368.59z M468.83,295h108.59
		c4.98,15.67,8.76,29.91,11.16,39.58c-42.99-3.03-86.36-3.07-129.76-0.13C461.06,324.37,464.43,310.31,468.83,295z"/>
</g>
</svg>
