<?xml version="1.0" encoding="UTF-8"?>
<svg id="Warstwa_2" xmlns="http://www.w3.org/2000/svg" viewBox="0 0 1024 1024">
  <defs>
    <style>
      .cls-1 {
        fill: #1d1d1b;
      }

      .cls-2 {
        fill: none;
        stroke: #1d1d1b;
        stroke-miterlimit: 10;
        stroke-width: 40px;
      }
    </style>
  </defs>
  <circle class="cls-2" cx="512" cy="515" r="364"/>
  <path class="cls-1" d="M476.8,56h73.39c17,0,30.8,13.8,30.8,30.8v78.2h-135v-78.2c0-17,13.8-30.8,30.8-30.8Z"/>
  <path class="cls-1" d="M768.8,164h73.39c17,0,30.8,13.8,30.8,30.8v78.2h-135v-78.2c0-17,13.8-30.8,30.8-30.8Z" transform="translate(390.43 -505.58) rotate(45)"/>
  <path class="cls-1" d="M890.8,460h73.39c17,0,30.8,13.8,30.8,30.8v78.2h-135v-78.2c0-17,13.8-30.8,30.8-30.8Z" transform="translate(1442 -413) rotate(90)"/>
  <path class="cls-1" d="M446,864h135v78.2c0,17-13.8,30.8-30.8,30.8h-73.39c-17,0-30.8-13.8-30.8-30.8v-78.2h0Z"/>
  <path class="cls-1" d="M738,756h135v78.2c0,17-13.8,30.8-30.8,30.8h-73.39c-17,0-30.8-13.8-30.8-30.8v-78.2h0Z" transform="translate(-337.18 806.96) rotate(-45)"/>
  <path class="cls-1" d="M155,164h135v78.2c0,17-13.8,30.8-30.8,30.8h-73.39c-17,0-30.8-13.8-30.8-30.8v-78.2h0Z" transform="translate(534.33 215.67) rotate(135)"/>
  <path class="cls-1" d="M33,460h135v78.2c0,17-13.8,30.8-30.8,30.8H63.8c-17,0-30.8-13.8-30.8-30.8v-78.2h0Z" transform="translate(615 414) rotate(90)"/>
  <path class="cls-1" d="M185.8,756h73.39c17,0,30.8,13.8,30.8,30.8v78.2h-135v-78.2c0-17,13.8-30.8,30.8-30.8Z" transform="translate(-193.28 1540.94) rotate(-135)"/>
  <g>
    <path class="cls-1" d="M536,546.79v96.95c17.76-9.96,27.52-26.83,27.52-47.64s-8.21-36.36-27.52-49.32Z"/>
    <path class="cls-1" d="M455.02,428.61c0,23.33,11.26,37.88,35.98,51.17v-97.62c-25.63,8.47-35.98,28.78-35.98,46.45Z"/>
    <path class="cls-1" d="M513.5,219c-162.65,0-294.5,131.85-294.5,294.5s131.85,294.5,294.5,294.5,294.5-131.85,294.5-294.5-131.85-294.5-294.5-294.5ZM536,683.64v46.86c0,12.43-10.07,22.5-22.5,22.5s-22.5-10.07-22.5-22.5v-40.9c-.33,0-.65,0-.98,0-32.5,0-68-9.5-86-21.5l11-36.5c19.06,11.73,46.72,21.54,75.98,21.98v-127.84c-49.67-19.39-79.98-47.29-79.98-92.14s30.96-78.98,79.98-88.74v-49.37c0-12.43,10.07-22.5,22.5-22.5s22.5,10.07,22.5,22.5v47.21c26.34,2,45.95,8.78,58.52,15.9l-12,35.5c-8.78-4.79-24.88-12.12-46.52-14.88v120.16c47.75,21.09,72.02,47.96,72.02,93.23,0,40.72-23.61,77.14-72.02,91.03Z"/>
  </g>
</svg>