<?xml version="1.0" encoding="UTF-8"?>
<svg id="Warstwa_2" xmlns="http://www.w3.org/2000/svg" viewBox="0 0 1024 1024">
  <defs>
    <style>
      .cls-1 {
        fill: none;
      }
    </style>
  </defs>
  <path class="cls-1" d="M510.5,806c-162.65,0-294.5-131.85-294.5-294.5S347.85,217,510.5,217c.17,0,.33,0,.5,0v-47.98c-.67,0-1.33-.03-2-.03-189.68,0-344,154.32-344,344s154.32,344,344,344c.67,0,1.33-.02,2-.03v-50.98c-.17,0-.33,0-.5,0Z"/>
  <path d="M511,862v-5.03c-.67,0-1.33.03-2,.03-189.68,0-344-154.32-344-344S319.32,169,509,169c.67,0,1.33.02,2,.03v-6.03h-68v-28.37c-28.61,4.95-56.52,13.15-83.48,24.55-23.26,9.84-45.3,21.84-65.99,35.89l12.23,12.23-95.46,95.46-13.47-13.47c-16.56,23.05-30.5,47.86-41.65,74.23-11.14,26.33-19.22,53.57-24.2,81.48h21.01v135h-21.2c4.97,28.26,13.11,55.83,24.38,82.48,11.06,26.15,24.86,50.76,41.23,73.65l13.89-13.89,95.46,95.46-12.82,12.82c20.86,14.22,43.1,26.37,66.58,36.3,26.96,11.4,54.87,19.6,83.48,24.55v-29.37h68Z"/>
  <path d="M511,129.01V54h-37.2c-17.01,0-30.8,13.79-30.8,30.8v49.83c21.64-3.75,43.68-5.63,66-5.63.67,0,1.33,0,2,.01Z"/>
  <path d="M511,163v-33.99c-.67,0-1.33-.01-2-.01-22.32,0-44.36,1.89-66,5.63v28.37h68Z"/>
  <path d="M509,897c-22.32,0-44.36-1.89-66-5.63v48.83c0,17.01,13.79,30.8,30.8,30.8h37.2v-74.01c-.67,0-1.33.01-2,.01Z"/>
  <path d="M511,896.99v-34.99h-68v29.37c21.64,3.75,43.68,5.63,66,5.63.67,0,1.33,0,2-.01Z"/>
  <path d="M293.54,195.08l-43.06-43.06c-12.03-12.03-31.53-12.03-43.56,0l-51.9,51.9c-12.03,12.03-12.03,31.53,0,43.56l41.82,41.82c12.15-16.92,25.71-32.9,40.63-47.83,17.33-17.33,36.07-32.82,56.06-46.4Z"/>
  <path d="M305.77,207.31l-12.23-12.23c-20,13.58-38.74,29.07-56.06,46.4-14.93,14.93-28.48,30.9-40.63,47.83l13.47,13.47,95.46-95.46Z"/>
  <path d="M130.99,445h-57.18c-17.01,0-30.8,13.79-30.8,30.8v73.39c0,17.01,13.79,30.8,30.8,30.8h57c-3.86-21.96-5.8-44.33-5.8-67s2.01-45.72,5.99-68Z"/>
  <path d="M152,445h-21.01c-3.98,22.28-5.99,44.99-5.99,68s1.94,45.04,5.8,67h21.2v-135Z"/>
  <path d="M196.42,736.12l-41.4,41.4c-12.03,12.03-12.03,31.53,0,43.56l51.9,51.9c12.03,12.03,31.53,12.03,43.56,0l42.47-42.47c-19.77-13.48-38.32-28.83-55.47-45.99-15.1-15.1-28.8-31.27-41.06-48.4Z"/>
  <path d="M210.31,722.23l-13.89,13.89c12.26,17.14,25.96,33.31,41.06,48.4,17.16,17.16,35.7,32.5,55.47,45.99l12.82-12.82-95.46-95.46Z"/>
  <path d="M788.22,498.53v-172.25c31.02,3.97,54.11,14.48,66.69,21.34l17.2-50.89c-18.03-10.22-46.14-19.92-83.89-22.8v-67.67c0-17.81-14.44-32.26-32.26-32.26s-32.26,14.44-32.26,32.26v70.77c-70.27,13.99-114.65,63.71-114.65,127.21s43.45,104.29,114.65,132.08v183.27c-41.94-.62-81.59-14.69-108.92-31.51l-15.77,52.33c25.8,17.2,76.7,30.82,123.29,30.82.47,0,.93-.01,1.4-.01v58.63c0,15.95,11.57,29.18,26.78,31.78,2.68.16,5.36.28,8.06.36,16.61-1.32,29.67-15.2,29.67-32.14v-67.18c69.4-19.91,103.25-72.13,103.25-130.5,0-64.9-34.8-103.41-103.25-133.65ZM723.71,470.43c-35.44-19.05-51.58-39.92-51.58-73.36,0-25.33,14.83-54.44,51.58-66.59v139.94ZM788.22,705.49v-138.99c27.68,18.57,39.45,40.23,39.45,70.7s-13.99,54.01-39.45,68.29Z"/>
  <path d="M216,511.5c0,162.65,131.85,294.5,294.5,294.5.17,0,.33,0,.5,0V217.01c-.17,0-.33,0-.5,0-162.65,0-294.5,131.85-294.5,294.5Z"/>
</svg>