<?xml version="1.0" encoding="utf-8"?>
<!-- Generator: Adobe Illustrator 28.5.0, SVG Export Plug-In . SVG Version: 9.03 Build 54727)  -->
<svg version="1.0" id="Warstwa_2" xmlns="http://www.w3.org/2000/svg" xmlns:xlink="http://www.w3.org/1999/xlink" x="0px" y="0px"
	 viewBox="0 0 1024 1024" enable-background="new 0 0 1024 1024" xml:space="preserve">
<path d="M770,94c0,0,8.45-6,14.72,0c6.28,6-7.36,7.44-7.36,7.44S762,100,762,105s9,7,9,7s13,1,19-3s12.7,3.11,12.7,3.11
	S808,121,805,129s-11,18-10,21s8,11,8,11s6,6,5,13s-6,18-8,18c0,0,5,6-1,15s9.11,7.16,9.11,7.16S818,218,820,234c0,0-4,3,2,5
	s4,6,4,6s12,5,15,21c0,0-13,2-19-2s-4,7-4,7s-4,3-9,2s-9-6-11-3c-1.79,2.68-11.54,2.17-15.03-0.82c-0.42-0.36-0.75-0.75-0.97-1.18
	c-2-4-8,10-12-15c0,0,3,11-4,7s-6-10-9-10s-7,1-10-5c0,0-21-1-22-36c0,0-2-4-10,3s-6-7-6-7s-10-1,1-6s-2-3-2-3s-3-8-11-1s-1,0-1,0
	l-7-3l-3.01-9.73c0,0-31.99-21.27-40.99-19.27s-15,7-21,7s-8-1-8-4c0,0-14,4,2-12c0,0,0-3-9,0l-5-1c0,0-11,3-6-10s9-3,7-20
	c0,0-4.61-0.16-8.3-7.58S602,111,602,111l-2-22l4-2v-5c0,0,9,1,9-3s-6-7-6-7l7-3c0,0-2-8-3-9s-4-10,4-7s-1-8-1-8s-5-5,3-9s1-8,8-8
	s18.37-4,18.18,0S634,41,639,44s9-6,9-6l-1-8h6V17c0,0,13-3.04,13,10c0,1,12,11,12,11s19,6,21,15c0,0,10,2,13-4s6.4,16.48,6.4,16.48
	S742,60,747,67s0,17,0,17l11,4C758,88,770,84,770,94z"/>
<path d="M571,82l9,3l13,4v9.01c0,0-6-3.01-5,1.99s5,4.29,5,4.29v5.14l-6,4.57l-1,8l3,8l-3,7l-4,7.95l5,4.05v14l-5,3.79
	c0,0,4,6.21,4,9.21s-12,11.53-15,10.76S557,190,556,184s2-12,2-12l8,5c0,0,0-10-7-13s8-9,8-9s-8.42-2.1-9.71-10.05
	C556,137,554,139,554,139h12c0,0-9-6-3-8s6-7,6-7s-6,10-11,9s-12,2-13-2s-10-10-6-14s3-11,9-9s8,0,8,0s-6-3-4-8S566,78,571,82z"/>
<path d="M534,125c0,0,7.9,8.77,10.45,9.38C547,135,545,138,552,151s-2,5-2,5l-3,8l-2.67,5.07c0,0-15.33-4.07-11.33-8.07
	s1.67-8.1-0.67-9.05s-12.25-10.18-5.29-17.57C534,127,534,125,534,125z"/>
<path d="M529.04,169.07c0,0,12.23,3.9,10.6,11.41C538,188,528.08,177.14,529.04,169.07z"/>
<path d="M506,155c0,0,16.53,6.14,14.76,14.07S502,167,502,167l4.78-3.44L505,159L506,155z"/>
<path d="M506,179c0,0,11.39-3.97,12.19,4.01C519,191,506,182,506,179z"/>
<path d="M494,162v5.93l-3.2,1.14c0,0,8,11.62,1.6,10.27c-6.4-1.34-19.62-7.89-17.01-8.62C478,170,490,156,494,162z"/>
<path d="M465.97,176.04c0,0,12.52-3.02,10.27,1.97s-10.27,6.18-10.27,6.18S470,192,463,192s-22.02-1.86-11.01-8.43
	C463,177,447.95,180.08,465.97,176.04z"/>
<path d="M475.05,189.62c0,0-2.05,10.38,2.95,10.38s10-9,10-9s4.88-7.77,5.94-1.38C495,196,494.88,200,494.88,200
	s8.12-6.94,6.12,3.03S498,215,493,216s-10-2-10-2s-0.51,2.41-4.76,2.2C474,216,468,211,468,211l-3-6
	C465,205,466.11,188.23,475.05,189.62z"/>
<path d="M510,197c0,0,14-9,16-4s0,10.88,0,10.88s6.78,5.44,0.89,6.28C521,211,507,205,510,197z"/>
<path d="M534.38,208.17l5.41-2.57v7.99C539.78,213.59,534.76,213.33,534.38,208.17z"/>
<path d="M532,184c0,0,11.16,8.49,19,6s7.29,10.66,7.29,10.66S561,208,580,196s11,11,11,11s-9.04,7.17-15.02,5.59
	c-5.98-1.59-19.11,4.59-22.54,0S547,197,547,197l-11.62-6C535.38,191,529,187,532,184z"/>
<path d="M572,225c0,0-13,2-12,15s-5,20,17,22l-2,7c0,0,8.61,6.05,20.81-3.48L600,263c0,0,6,5,10-3s0-3.89,0-3.89s10,0.89,14,6.89
	s27,13,27,13s5,11,4,15s-3,8-3,8s4,10,7,8s-16,14-18,12s-8,7-1,8s26-8,26-8l20,12c0,0,27.04,8,30.52,0S697,320,697,320l14-1
	c0,0,5.81-5.65,7.4-3.82C720,317,722,307,707,304s-19-4-22-19c0,0,6-2,12,4l14,1c0,0,2.91-5.44,0.96-10.22C710,275,719,268,698,266
	s-14-2-14-2l-19-6l1-9l-13-5c0,0,0-8-5-8s-19,1-19,1s0-9-17-9c0,0,4.61-7.85-16.19-6.42L599,232c0,0-9.63-8.19-14.32-10.6
	C580,219,577,233,577,233L572,225z"/>
<path d="M632,284c0,0,15-7,11,7s-11,1.35-11,1.35V284z"/>
<path d="M519.44,241.84c0,0-1.85-14.71,9.86-10.27c0,0,5.29,9.11,0,10.27c0,0,3.71-2.84,3.71,2.16s-1.8,8.97-1.8,8.97l-1.9,7.42
	c0,0-5.34,5.39-6.82,0c-1.47-5.39-12.89-17.69-12.89-17.69v-3.71L519.44,241.84z"/>
<path d="M431,223c0,0-3.42-13.52,9.29-12.76C453,211,453,219,453,219s15,3,8,7s-24,14-24,14v13l-13-3c0,0,4-9-1-11s-4-10-4-10
	L431,223z"/>
<path d="M471,270c0,0-19-2-21-5s2-7,2-7s-12.84-2.49-3.92-11.24L450,240c0,0,5,3,9-2s9-2.89,12,1.56s8,2.44,8,2.44
	s6.32,12.5,4.16,13.25C481,256,495,258,492,243s7.65-11.4,7.65-11.4l2.35-0.38l-1,10.33l3.78,5.2l1.22,19.34l5.45,7.11l0.67,2.59
	c0,0,4.35-0.64,6.12,4.28c1.77,4.92-6.23,4.85-6.23,4.85s7.23,4.77,0.12,7.42C505,295,499,291,497,287l-13.84,6.2L465,294.92
	c0,0-8.03-8.42-7.02-12.67C459,278,442,272,453,272S471,270,471,270z"/>
<path d="M598,329c0,0-2,12,2,15s2,18,7,17s2-12,8-13s17,1.71,17,1.71s6,2.29,2-2.71s-25.92-18-25.92-18h-8.28"/>
<path d="M188,314l27,5c0,0-6,7-16,5S188,314,188,314z"/>
<path d="M298,379c0,0,10,0,12,9s2,16,2,16s8,1,7,7s-3,16-3,16s-15,3-14-3s-2-14-2-14l-4.1-6.62C295.9,403.38,290,381,298,379z"/>
<path d="M297,430c0,0,9-1,7,4s-5,9-5,9s-3,8.87-2,9.44c1,0.56-9-15.44-5-20.44s5.67-0.68,5.67-0.68"/>
<path d="M311,484c1.15-3.83,11,0,19,20s4,18,2,18s-12.4-14.94-14.7-18.97C315,499,308,494,311,484z"/>
<path d="M892,437l9-3c0,0-2-12-3-12s-7.98,7.5-7.98,7.5L892,437z"/>
<path d="M877,448l2,12l-4,3l-4-3C871,460,871,444,877,448z"/>
<path d="M884,460c0,0,0.86,0.17,2.03,0.52c2.81,0.83,7.38,2.66,5.97,5.48c-2,4-10,2-10,2v-8"/>
<path d="M847,466l6,6h5.35c0,0,3.65,12.22-2.35,12.11s-9,2.89-10-4.11s-3.7-9-1.35-11.5S847,466,847,466z"/>
<path d="M806.13,455.18c0,0,14.65-11.82,18.26,0C828,467,813.55,460,813.55,460L806.13,455.18z"/>
<path d="M848,400c0,0,11,3.55,8,10.77c-3,7.23-2,8.23-2,8.23l5.45-4.8v4.8c0,0,6.55-2,9.55-6s8,4,8,4l10.13-2.8L885,433
	l-30.65,22.18H848l-2.49-27.59L841,408.78C841,408.78,843,397,848,400z"/>
<g>
	<path opacity="0.3" d="M214.28,187.1c-0.26,0.18-0.09,0.48,0.35,0.83C214.67,187.25,214.57,186.89,214.28,187.1z"/>
	<path d="M856,488c0-6-14,6-27,6s-10-4-13-10s-11-4-11-4s8-9-2-14s-21,12-21,9s5-18,13-21s35-26,35-26l2-14l9-8.93L839,393l-6-3
		l-4-7l-5,3l-8-4l-11.81,16.72c1.22-1.85,7.9-11.99,8.81-14.72c1-3-3-6-3-6s-32,0-34-6s-19-10-19-10l-11.94-6.82
		C744.12,340.37,734,345,734,345s1,36-5,29s-14,1-14,1c-7-22-24-22-24-22c-11-14-17-4-17-4l-10,1c0,0-16,1-13,3s14,38,14,38
		c-6,16,13,15,13,15c18,26-1,37-4,43s7,15,13,23s-3,15-8,17s-12-9-12-9l-12-17c0,0,6-6,1.6-11.99c-4.41-5.99-19.6,0.99-24.6,0
		c-5-0.99-20-6.01-27.34-11.61C597.32,433.79,588,437,582,439s-8-4-8-8s-5-10-10-12s-6-14-8-20s3.95-9.91,3.95-9.91
		S571,377,575.6,365.69c2.75-6.75,0.23-8.54-2.26-8.88C579.45,354.91,590,347,590,347s1-9,0.96-12.44C590.92,331.11,582,332,582,332
		l10.67-5.12v-8.28h3.14l3.14-5.6c0,0,8.05,0,10.05,0s4-14,4.22-18.08c0.22-4.09-7.22-4-7.22-4s1-6.92,0-10.92s-13.67-4.2-13.67-4.2
		S585,275,590,280s1,9-3,14.92c-4,5.91,2,7.08,0,11.08s-7-5-7-5s-1-9-7-13s-2,11-2,11s-2-5-5.51-6.37
		c-3.51-1.36-1.92-12.63-1.92-12.63H557l2.95-11.62c0,0-11.95-15.38-13.26-21.62c-1.3-6.25,6.31-6.76,7.98-8.06
		c1.66-1.3,0-17.57,0-17.57l-16.69,3.02c0,0,0.02,8.85-0.9,13.41c-0.92,4.56,2.55,7.13,2.55,7.13L543,255c0,0-5,8-5.92,18.2
		C536.16,283.41,546,283,549,284s-3,29-3,29s-8,5-6.22-6.38c1.79-11.39-0.78-19.62-6.78-22.83c-6-3.22-3,24.21-3.71,24.54
		C528.59,308.66,521,309,508,306s-16-1-20.51,0.33c-4.52,1.33-0.49,14.67-4.33,15.98c-3.84,1.31-2.16-8.31-6.64-15.12
		C472.03,300.37,461,307,455,304s2-7,2-11s-12.07-5.79-12.07-5.79S431,275,421,270s-7.53,3.2-7.53,3.2s-7.47-8.2-7.42-10.42
		c0.04-2.22-6.28-9.78-6.28-9.78s-3.77,3-9.77,3s-15.91,6.78-15.91,6.78S376,257,368.66,253c-7.33-4-3.66,6-10.66,4
		s-2.46-10.24-2.46-10.24L345,241l-6-14l-21.7-21.4L316,194l-6-5l-1.83-10.99c0,0-5.17-3.01-7.99,1.44
		c-2.83,4.45-26.83-7.32-26.83-7.32l-7.7,3.91c0,0-4.65-5.04-11.65-10.04s-6,12-8.04,13.45C243.91,180.9,244,196,244,196l2.24,13.59
		c0,0-9.24-8.59-7.24-15.59s-17.01-2.51-17.01-2.51s-5.67-2.2-7.36-3.56C214.52,190.2,213,196,213,196l-2.43,9.6l6.57,12.4H225
		l0.98,3.13L217,233l-16-11l-6,3c0,0-8-4-12-3s-5,15-5,15s-7-10-7,5s12,14,12,14l-13,15l6.61,2.2L178,285c0,0,13,4,13,7
		s-17,6-25.23,5.59c-8.23-0.41-20.83-7.67-20.83-7.67S132,288,127,286s-8,0-8.03,3.92C118.94,293.84,139,301,139,301l37,7
		c0,0,33,5,31,1c-1.75-3.5,14.89-7.77,16.36-8.1c-0.08,0.03-0.2,0.06-0.36,0.1c-4,1-1,12-1,12s7,0,10-4s11,4,17,5s4-5,7-5
		s13,21,13,21s7,5,11,12s6,19,6,19s8,12,13,12s-2-8,0.94-9.88S312,366,312,366v11l6,20c0,0,7,23,5,28s-10,16-12,21s7,24,7,29
		s7,15,9,13s8,8,8,14s13,17,13,17s4,10,1,18s-10,0-10,0s7-9,4-6s-15-5-15-5s0,5,0,15s-14,41-18,46s-2,18-2,18s-7,12-8,32
		s11,18.05,11,18.05V669l4,15c0,0-2,18,4,17s23,18,23,18s5,22,7,28s5,20,4,28s11,11,11,11s10,15,9,19s-4-3-13-5s3,15,3,15
		s11,6,19,10s3,24,3,24s16,12,16,15s9,14,12,14s5-4,5-10s-14-17-14-17l-11-40l-14-22l-7-16c0,0-4-17-3-21s17,8,17,8l8,33l25,32l6,6
		l-3,6l47,54c0,0,10,16,2,21s-7,13-4,20s11,7,20,9s11,11,11,11l12-1c0,0,12,5,38,20s43,11,50,12s19-10,20-9s13,1,13,1l1,3l24,15
		c0,0,1-10,3-17s12-4,19-7s-1-5-1-5s-13-6-13-13s9-7,20-7s14-16,14-16s9,3,11,3s4-15,0-22s1-7,2-11s2-14-2-18s-10,8-10,8l-32,7
		c0,0,1,15,2,21s-5,7-8,9s-1,9-1,9l-7-1l-24,11l-12,4c0,0-6-7-12-10s-8,2-8,2l-17-12c0,0-9-24-12-41s1-34,1-34l6-7l-4-7
		c0,0-3-17-3-20s9-13,17-16s10-10,10-10l-1-6l13,2l6-6c0,0,7,5,9,2s11-3,12-2s6,5,17,2s10-9,10-9s-8-1-9-5s11-4,18-6s10-2,12,1
		s9-2,11-3s19,9,18,5s12-9,12-9l17,12c0,0,4,6,2,13s8,15,16,17s2,5,4,7s12,11,14,8s8,3,5-18s-8-14-8-14c-1-9-6-11-20-29s-9-27-9-27
		s30-42,36-49s-2.98-11-2.98-11s2.98,0,7.98,0s-2-9-2-9s1-8-6-11s-2.83-7-2.83-7H769c0,0-6-8-4-11s12,5,12,5s0-5-2-9s-1-11-1-11
		s0,5,5,3s-3-17-3-17l18-10l-3-8l-16,13l2-11c0,0,30-13,33.41-17.49c3.4-4.49-7.41-5.51-7.41-5.51s-2,9-4,4s-8-5-8-5l1-5l3-7
		c0,0,2-10,1-10s4-8,4-8l10.69-4.78L809,520l9-5v-5l6-8l3.53,10l-3.71,12c0,0,5.18,5,13.18,0s1.37-12,1.37-12l10.63-5
		C849,507,856,494,856,488z M745,558c0,0-1,11-5,19s-16,6-16,6s3,9,3,11s-7,9-24,20s-17.01-7.47-17.01-7.47s5.01-24.53,0-18.49
		S674,591,674,590s5-9,3-18s-12-7-12-4s-6,9-9,13s2,17,5,26s-4,17-12,16s-2-11-6-21s1-21,3.04-32.77
		c2.04-11.76,19.96-3.23,16.83-8.11C659.75,556.23,645,563,635,563c-6.19,0-6.25-3.84-5.39-6.75c-1.92,3.57-6.14,9.14-14.61,11.75
		c-13,4-14-3-14-3c-4-6,9-12,9-12l1-8h6l5.64-9.51L638,529c0,0,8,12,14,10s15,16,19,18s25,0,30,0s8,12,6,16s-9-3-9-3l1,12l-4,23
		c0,0,4-3,8-9s17-12,17-12s-4,1-6.05-4.96C711.91,573.08,721,571,725,567s7,3,7,3l2-7l7.92-10c0,0,6.08-5,8.56,0
		C752.96,558,745,558,745,558z"/>
	<path opacity="0.3" d="M629.61,556.25c0.97-1.79,1.34-3.08,1.38-3.23C630.89,553.18,630.1,554.56,629.61,556.25z"/>
	<path opacity="0.49" d="M629.61,556.25c0.97-1.79,1.34-3.08,1.38-3.23C630.89,553.18,630.1,554.56,629.61,556.25z"/>
</g>
</svg>
