<?xml version="1.0" encoding="utf-8"?>
<!-- Generator: Adobe Illustrator 28.5.0, SVG Export Plug-In . SVG Version: 9.03 Build 54727)  -->
<svg version="1.0" id="Warstwa_2" xmlns="http://www.w3.org/2000/svg" xmlns:xlink="http://www.w3.org/1999/xlink" x="0px" y="0px"
	 viewBox="0 0 1024 1024" enable-background="new 0 0 1024 1024" xml:space="preserve">
<path d="M979,820c0,0,3.44-3,6.22,0s3.78,7,7.78,5s3-8,2-9s-1-14-1-14l-4-6c0,0,0.89-37.57-2.55-38.79s-11.22-2.79-13.33,0
	S969,761,967,761s-10-3-14,0s-6,6-5,9s-13,9-13,9s-4.04,6.2-2.02,11.6C935,796,931,800,929,799s-9.9-8.4-9.9-8.4S914,792,914,787
	s3-12-3-10s-13,0-13,0l-1,3l-4-1v5.47l-8,2.53c0,0-7,5-6,6s0,3,2,4s4-5,7-3s1,3,1,3s-1,4,8,0s11.5-6.4,11.5-6.4l3.5,2.4l-8,5l-3,5
	c0,0-5-3-5,0s5,5,5,5l2,5l4,1c0,0,4-6,3-8s7-1,11,0s6,4,12,3s15-8,15-8s11-4,14,1s6,10,6,13s4,6,2,6s-8.5,1.08-8.25,4.54
	S961,833,961,833s2,3,8-1S979,820,979,820z"/>
<path d="M927,765c0,0,4.48-5,6.74,0c2.26,5-3.37,3.82-3.37,3.82L927,765z"/>
<path d="M871,784c0,0,1,6,4,5s7-4,5-6S872,783,871,784z"/>
<path d="M919,824c0,0,0-6,3-3s2,9,2,10s-0.84,8.45-2.42,7.72c-1.58-0.72-6.93-2.56-5.26-4.64c1.68-2.08,3.76-4.61,3.76-4.61L919,824
	z"/>
<path d="M889,858c0,0,0-6,4-6s1.87,6,1.87,6l-4.87,4L889,858z"/>
<path d="M844,810c0,0-3,3.01,0,5c3,2,7.22-2.5,7.22-2.5l-1.26-2.5H844z"/>
<path d="M851.22,823.58c0,0-3.22,2.42,1.78,3.42s9.07-3.42,9.07-3.42h18.47c0,0,5.46-3.58,1.46-5.58s-7-1-9-1
	s-12.45-0.25-12.45-0.25L851.22,823.58z"/>
<path d="M832.04,834.08c0,0,8.26-7.92,12.11,0c3.85,7.92-11.1,4.69-11.1,4.69L832.04,834.08z"/>
<path d="M849,894c0,0,3,5,4,2s3-6.6,0-6.3S849,894,849,894z"/>
<path d="M830,878c0,0-3,6.3,0,6.15s6.82-0.94,8.41-4.54C840,876,839,875,836,875S830,878,830,878z"/>
<path d="M813.62,889.68c0,0-0.62-3.68,2.38-2.68s5.19,1.26,5.19,1.26l-3.81,5.07L813.62,889.68z"/>
<path d="M805,904l2,10c0,0,8-3,12-9s16-13,16-13s12.57-4.7,9.78-7.85c-2.78-3.15-10.87,2.68-10.87,2.68s-9.5,3.32-10.71,3.25
	c-1.2-0.07-10.08,11.05-9.64,11.49C814,902,805,904,805,904z"/>
<path d="M844.78,774.63c0,0-2.9,5.72,2.16,5.05c5.06-0.67,5.53-2.22,6.29,0.05s-2.84,4.53-3.04,5.9c-0.2,1.37,1.59,3.48,1.59,3.48
	l-4.85,1.41c0,0,6.64,9.72,4.85,10.6s-9.13-3.53-9.13-3.53l2.52-6.06l-4.06-5.91c0,0-3.88-11.38,0-11C845,775,845,775,845,775"/>
<path d="M801,895c0,0,5,3.09,0,4.54c-5,1.46-8,3.46-9,2.46s5.61-7,5.61-7H801z"/>
<path d="M787.37,902.27c0,0,7.42-0.61,4.53,1.06C789,905,787,906,785,906s-3,0-6,1s-9,4-12,3s-7-2-7-2s3-8,7-7
	s13.05,1.27,13.05,1.27l6.56-1.36L787.37,902.27z"/>
<path d="M756,919c0,0-3,3.51,0,3.25c3-0.25,5.83-6.25,9.41-3.25c3.59,3,8.06,4.43,7.82,1.22C773,917,770.86,913,766.93,914
	c-3.93,1-10.93,2-10.93,2V919z"/>
<path d="M709.64,918.06c0,0,1.36,4.94,4.36,1.94s4-6,0-6s-4.36,2.45-4.36,2.45"/>
<path d="M722,916c0,0-0.85,4.93,7.08,4.97C737,921,745.99,916,746.99,916c1.01,0,12.71-3.6,11.86-5.8C758,908,749,908,749,908
	l-3.02,2.2c0,0,0.43-1.2-2.78-2.2s-2.77,4.67-2.77,4.67S733,915,730,915S722,914,722,916z"/>
<path d="M817.37,787.93c0,0,5.45,0.81,1.54,6.94C815,801,810,806,810,806l-17.43,5.47l-16.28,5.28L768,818l-4.04,12.56v-13.81h7.51
	c0,0-4.98-3.81,1.78-5.28c6.75-1.47,15.64-2.23,15.64-2.23L808,799L817.37,787.93z"/>
<path d="M765,832c0,0,5.49-0.09,8.25,4.45c2.75,4.55,8.32-2.37,8.32-2.37s-3.9-7.79,1.77-6.93C789,828,798,818,799,819
	s7.49,6.29,1.74,8.15c-5.74,1.85-16.7,9.05-16.7,9.05s-3.9,0.65-1.97,3.22c1.93,2.58,9.72,2.15,9.83,5.86c0.1,3.71-4.1,6.45,0,8.58
	C796,856,803,862,801,866s-3.86,6.03-8.43,4.02C788,868,783.08,862,783.08,862l-1.08-4l-3.71-1c0,0-3.73-3-1.01-5
	c2.72-2,0.72-3-2.28-2s-10,0-8,3s2.93,5,3.97,9c1.03,4,0.03,14-0.97,15s-5.09,3.15-6.04,2.58C763,879,765.16,864,763,862
	s-1.2-5-4.1-5c-2.9,0-5.56-3-4.23-5c1.33-2,5.33-0.42,5.33-6.21s-1.1-10.8-1.1-10.8L765,832z"/>
<path d="M749,722c0,0,4,3.89,0,6.44c-4,2.56-8.13,3.59-8.56,7.57C740,740,735,751,733,752s-7-1-5-3s8-6,8-6l3.16-10.27L749,722z"/>
<path d="M754.31,696.9c0,0,5.48-0.03,4.58,4.04C758,705,759,708,762,705s0-10.12,0-10.12s-7.67-0.12-7.33,0
	C755,695,754.31,696.9,754.31,696.9z"/>
<path d="M770,704l1,5v5.56c0,0,10-1.56,10,1.44s-2.3,6-2.3,6s-3.7,5.87,2.3,5.43s4.1-5.43,4.1-5.43l4.9-3c0,0,4.39,5,5.19,3
	s6.19-5.54,0-6.27s-11.13-3.94-11.13-3.94l-1.74-5.57L770,704z"/>
<path d="M792.57,691.6c0,0,5.43-4.6,7.43-1.6s2,6,2,6s4-0.68,3,2.16c-1,2.84-6.14,3.79-6.14,3.79v4.27L802,710h-5.55l-1.26-6
	l-4.29-3.48l4.54-1.03L792.57,691.6z"/>
<path d="M807,711c0,0,9.75,3.21,10.37,8.11C818,724,823,730,823,730s2,9.59,0,9.3s-4.11-7.79-7.56-4.54c-3.44,3.25,0,11.1,0,11.1
	s7.3,1.43,1.93,3.79c-5.37,2.36-16.63,0-16.63,0l-2.61-10.35c0,0-4.34-6.03-6.24-2.16C790,741,788,746,786,745s-4-4-4-4
	s-3.6-1.33-3.3,2.33s1.1,7.36,1.1,7.36s-6.31,1.58-6.55-1.55c-0.25-3.14,3.04-8.58,3.04-8.58L788,729l4.57,3.73l3.38-1.69
	c0,0-0.83-4.13,2.61-3.59c3.44,0.54-2.65-10.25,6.6-6.58C808,722,805,718,805,718l0.16-3.94L807,711z"/>
<path d="M787,692l-4-5c0,0-6.51-7.99-9.75-5.49c-3.25,2.49,0,5.01,0,5.01l7.31,5.49H787z"/>
<path d="M773.23,690.09c0,0,0.37,2.64-1.43,2.78c-1.8,0.14-7.85-6.35-7.85-6.35s4.04-10.47,6.04-5.49
	C772,686,773.23,690.09,773.23,690.09z"/>
<path d="M762.39,688.98c0,0-3.73,4.74-6.06,3.88s-1.66-7.83-1.66-7.83s-2.11-6.99-3.89-4.02C749,684,749,686,747,685
	s-10.13-9.63-6.56-10.81C744,673,746,673,746,669s-5.13-5.89-5.56-8.95S746,649,746,649l4.78,1.21l8.05-2.78L757,657
	c0,0,4.77-3.42,5.39,1.29c0.61,4.71-6.56,11.91-6.56,11.91l-1.16,4.24l4.23,5.24c0,0,4.95,5.34,3.53,6.83C761,688,761,688,761,688"
	/>
<path d="M636.46,883.22c-0.46,0.78,6.58,3.09,6.56,0.93c-0.02-2.15-1.56-5.98-3.29-6.56c-1.73-0.59-4.78,3.73-4.78,3.73
	L636.46,883.22z"/>
<path d="M609.96,875c0,0,4.04-6,8.04-3s4.08,7.58,4.08,7.58s6.68,0,5.8,1.71c-0.88,1.71-7.32,1.93-7.32,1.93l-1.6-3.64l-7.74-4.58"
	/>
<path d="M541.83,875c0,0,7.43,1.34,5.8,4.67c-1.63,3.33-9.02-1-7.82-2.34C541,876,541,876,541,876"/>
<path d="M528,853c0,0,11,6,8,7s-11-1-11-1L528,853z"/>
<path d="M601.63,849.3c0,0,4.26,7.7,6.81,2.7s-5.45-4-5.45-4L601.63,849.3z"/>
<path d="M612.49,917.48c0,0,2.67-9.08,9.59-7.28c6.92,1.8,19.94,4.22,19.94,4.22L661,915c0,0,3.06-6.07,9.53-5.03
	c6.47,1.03,13.12-0.12,13.12-0.12L690,916c0,0,8.67-1.03,13.33,1.48s2.27,4.79,2.27,4.79h-15.9L687,925h-24.04
	c0,0-4.2-4.07-8.58-4.03s-7.07,4.03-7.07,4.03l-24.48-2.73C622.83,922.27,614.97,916.97,612.49,917.48z"/>
<path d="M731.09,768.94c0,0,5.91,6.06,5.91,7.06s13.78,2.16,13.78,2.16s-6.33,5.1-5.55,7.47C746,788,745,792,743,792
	s-7.71-0.26-6.35,2.87c1.35,3.13-1.89,4.61-1.77,6.37c0.12,1.76,4.28,4.17,4.28,4.17L742,814c0,0,11.09,2.86,10.54,4.93
	C752,821,748,823,748,823s-5.34-1.82-6.17,1.09c-0.83,2.91-2.67,6.47-2.67,6.47s1.16,10.45,0,11.45c-1.16,0.99-13.36,8.8-13.36,8.8
	s0.28-0.43,1.74,2.88c1.46,3.31,0,17.47,0,17.47s-9.26,6.74-10.9,6.79s-4.47,2.95-4.47,2.95L708,874l-19.3,1c0,0-6.46,4.9-8.58,2.95
	c-2.12-1.95,0.53-8.63-4.79-6.79C670,873,667.44,878,664.22,875s1.49-13.68-4.87-16.34c-6.35-2.66-8.26-7.86-8.26-7.86l-1.26-15.81
	c0,0,8.07-3.83,12.62-0.91C667,837,676,833,676,833s-5.36-5.1-1.18-11.05c4.18-5.95,12.11-5.2,12.11-5.2L698,803l18.64-17.37
	l3.6-3.48l1.73-6.26l7.86-6.95"/>
<path d="M610,910l7.53-2.12c0,0,1.01-9.24-1.26-14.56c-2.27-5.32,2.69-6.49,2.69-6.49s-7.04-5.25-9-5.54
	c-1.96-0.29-6.69-2.91-8.33-4.1s-4.29-6.03-4.29-6.03L591,870c0,0-1-7,0-8s-6.27-5-6.27-5v-5l-11.1-2.7L565,843h-4.5
	c0,0-10.79-8.84-15.65-8.92c-4.85-0.08-17.92-15.15-17.92-15.15s-13.94-3.07-14.94,0s2.82,12.23,11.91,15.15
	c0,0,14.63,15.53,19.86,16.72c5.23,1.2,4.09,9.48,4.09,9.48l15.16,10.88l4.79,18.52L592,904l9.63,5.85L610,910z"/>
<path d="M634.95,675.7c0,0,12.05-10.7,16.05-9.7s0,4.82,0,4.82l-1.17,8.86c0,0-2.79,10.45-6.81,8.39c-4.02-2.07-7.13-2.54-8.08-5.8
	c-0.95-3.26,0-5.13,0-5.13"/>
<path d="M364,782c0,0,3,3,4,9s6,5,6,11s-2,14.02-5,14.01S357,817,356,815s-2-14-2-18S363,781,364,782z"/>
<path d="M45,453c0,0-1,6,4,6s9.14-1,10.57-3C61,454,45,451,45,453z"/>
<path d="M52.29,377.67C54.83,381.13,59,383,59,383v6.27c0,0,6,0.73,3,2.73s-6,1-6,1s-0.42-3.96-3.71-4.48
	c-3.29-0.52-9.38-3.06-9.38-3.06S50.58,375.33,52.29,377.67z"/>
<path d="M329,252c0,0,9,5,6,5s-9.7,0-9.7,0l2.52-5"/>
<path d="M296,246c4,2,3.56,6,3.56,6s-6.07,4-6.81,2.5S289,250,291,248S296,246,296,246z"/>
<path d="M370,204c0,0,1,7-2,7s-9.84-2-12.92,0S340,218,340,218l-4.39,2.7v4.79h-7.28c0,0,1.33,0.06,0,3.28C327,232,322,237,322,237
	l3.3,6.66v3.53c0,0-8.3,2.8-9.3-3.2s4-5,4-5l-6-3l11.3-12.27h5.15v-4.54l5.15-1.77v-4.79c0,0,11.39-7.62,17.39-5.62s10,1,10,1l2-5
	L370,204z"/>
<path d="M433,192c0,0,0-3,4-4s11-3,6-6s-10-5-11-3S433,192,433,192z"/>
<path d="M428,175c0,0,2,11.26,0,11.63S417,183,417,183s-3-8,0-8S428,175,428,175z"/>
<path d="M415.67,165.94c0,0,5.33,0.06,4.33,3.06s-0.21,8.08-2.1,8.04c-1.9-0.04-5.69,3.04-6.79,0C410,174,411,168,411,168
	L415.67,165.94z"/>
<path d="M531,141c0,0,3,5.03,0,6.52c-3,1.48-9,1.48-9,1.48l7.96-8"/>
<path d="M527.17,165.94c0,0-2.24,8.38,2.8,6.22C535,170,539,168,537,166S527.17,165.94,527.17,165.94z"/>
<path d="M514,153l4,3h5.15c0,0-4,11.19-4.58,9.09s0,3.71,0,3.71H512l-6.51-7.9L507,158l5,0.62v-7.07L514,153z"/>
<path d="M692,270l11,7c0,0,4,8,10,10s20,5,19,8s-1,6-1,6l5,5l3,8l13,3c0,0-7,2-5,5s2,6,2,6l-11-11l-3-5l-6-4l-8-10l-8-5l-7-4l-8-7
	l-1-6l-5-4.32"/>
<path d="M777,298c0,2,4,11,4,11l5-8L777,298z"/>
<path d="M752,332.24c0,0,0,3.76,3,3.76s7,10,7,10s8,4,6,5s-9.68,1.4-7.84,3.7C762,357,763,362,763,362l5.32,1.28L771,368l2,1l3-7
	l-7-3c0,0,4-4,8-5s7-4,7-6s-1-5.35-2.5-6.67c-1.5-1.33-1-5.57,3.5-5.33s6.24-6,2.62-8c-3.62-2-8.62-3-8.62-3l-8.58,7.75L752,332.24z
	"/>
<path d="M777,369c0,0-3-8.43,4.5-5.21s2.75,2.21,6.63,5.21c3.87,3,11.87,7,11.87,7s-3,3-2,5s1,5,2,5.5s-2,5.64,0,7.57s6,3.93,7,4.93
	s0,7.18,0,7.18s4,2.82,6,5.82s2,8,2,8l-6-2v6l2,4h-6.72l2.72,6c0,0-8.59,6.47-11.3,4.74C793,437,794,441,794,441s9,0,7,2s-5,6-2,9
	s-5,2-5,2l-6-9l-6.5,4.08v5.08l4.5,3c0,0,3,4.79,0,6.81c-3,2.03-1,4.03-1,6.03s-3.5,2.81-3.5,2.81l-4.5-3.28l2-6.52l2.5-7.61
	L779,455l-8.21,8.47L774,467c0,0-1.43,0.04-3.21,2.02S764,474,764,474v3.1c0,0-3-4.1,5-1.1s6,7,6,7l4,5c0,0,1,7,1,8s-7-3-6-3
	s0,6,0,6l-5-7c0,0,0-7-2-8s-3.55,2.18-3.55,2.18v3.53l-4.45-8.58l3-2.13l1-6l5-4l-4,2v-5l3-3l-1-11l6-3l6-9c0,0,2,2,6-1
	s-1.17-7.97-1.17-7.97s-4.83-9.88-1.33-9.96C785,421,791,412,791,410s-4-16.44-4-16.44v-7.82l-10-11.1l1.03-5.64"/>
<g>
	<path opacity="0.22" d="M593.32,848.05c0,0-0.02-0.01-0.06-0.03c-0.28-0.06-0.45-0.1-0.45-0.1L593.32,848.05z"/>
	<path opacity="0.22" d="M36,406c1.82,1.22,0.69-0.16-0.48-1.42C35.1,404.97,35.09,405.39,36,406z"/>
	<path opacity="0.22" d="M695.44,485.76c0.05,0.15,0.07,0.24,0.07,0.24S695.49,485.9,695.44,485.76z"/>
	<path opacity="0.22" d="M682.26,292.49c1.23,1,2.74,1.51,2.74,1.51S683.67,293.12,682.26,292.49z"/>
	<path d="M753,217l-1-4l-6-3v-8c0,0-5-3-8-4s-4-10-4-10l2-3c0,0-9-3-11-3c0,0-2-5-5-5s0-3,0-3l3-1l-11-2l-7-7l-1,7l-19-20l1-3l1-3
		l-6-7c0,0,3.62-0.72,5.31,0.3c-1.44-1.99-4.31-6.3-4.31-6.3s-2-9,1-9s5-3,2-5s-15-17-15-17l-3-5l-7-9c0,0,6-6,2-7s-10.34-1-12.67,0
		C647,81,647,84,644,85s-6-1-6-1l1.74-4.75c0,0-4.74-11.25-7.74-9.25s-7,3-8,2s-5-7-2-7s5.63,0,5.63,0L626,60l1-4h3.4l0.6-5
		c0,0,6,0,3-2s-8-4-8-4l-6-4l-4-1l-3-5c0,0-3,5-4,8s-1,10,3,9s4,1,4,1l-3,3l-5-1l-11,14l-1,7c0,0-5-2-5,3s-1,13-1,13s-8,7-5,11
		s13,3,13,3s4,1,1,4s-9,3-9,3s4,4,2,7s-4,6-4,6s9,3,5,6s-8,6-8,6s4-5-6-6s-6,22-6,22s-4-5-6-3s-8,7-8,7s-4-1-4-2s-1-2-4,4
		s-13,8-12,11s7,8,9,9s2,8,2,8h-7c0,0-6.14,2.87-4.07,4.44C541,194,543,196,541,196s-9,0-9,0s7,4,7,7s-2,5-3,5s-9-1-9-1l-12-15
		c0,0-4,2-5,2s-7-2-7,1s3,9,3,9s-6,5-8,5s-8-5-8-5l-8,7v5.41l-5-5.41h-6l1,8l-4,2l2,6l-5-2l-3,4l3-7v-4l3-2l1-6l2-6l4-4c0,0-5-2-7-3
		s3-2,3-2s-5-6.67-9-4.84c-4,1.84-6,6.84-6,6.84l-4-2v-3.07l-6,2.07v-6.11l-3,3.11c0,0,1,8.53,0,9.76s-3,1.24-3,1.24v5.32l-2-4.32
		l-1,3l-1,3c0,0-4-1-5-3s-3,2-3,2v3.36c0,0-4-2.36-6,0.64s-7,8-7,8s2,7.54,0,8.27S401,233,399,231s0,10.39,0,10.39l9,6.61
		c0,0,2,12-1,13s-5-2-5-4s2-8,2-8l-4-1c0,0-4-6-7-5s-2,4-2,4l-7,1c0,0,8,2,8,4s-2,4-2,4s-6-4-8-4s2-12,2-12l-6,6c0,0-4,4-1,7
		s-1.23,4.63-1.12,6.82C376,262,372,267,375,268s9,3,9,3s6,1,5,5s-2,8,1,10s-7-1-7-1l2-7c0,0-1-6-4-5s-5,2-4,8s-6,7-6,7s-6,7-6,8
		s-9,1-9-2s6-3,6-3s12-7,10-12s-6-12-3-12s2-8,2-8s3-6,0-9s0-5,2-5s7-5,2-6s-6-3-7-3s-5,10-5,10l-5,3c0,0-3-1.03-2,2.49
		s0.59,6.64-0.2,8.08C355,261,361,271,359,274s-3,5-4,4s-11-20-20-21c0,0-4,0.71,0,6.85c0,0-10,2.15-10,4.15s-4-2-4-2s3-3,2-4
		s-7,0-7,0l-3-2l-4,1c0,0,2,4.72,0,3.36c-2-1.36-6-6.36-3-6.36s-16-1-16-1l-14,8l-3-8c0,0,5-4,7-2s4-8,1-9s-11,9-11,9s1,5.65,0,5.82
		c-1,0.18-7,7.18-7,7.18s-4-7-2-8s-6-1-6,0s-6,1-6,1l-3,10l-7-9l-0.06,0.02c-1.28,0.7-2.94,0.98-2.94,0.98l2.94-0.98
		c1.16-0.63,2.01-1.6,1.06-3.02c-2-3-6-3-6-1s0,7.11,0,7.11s0,5.89-2,4.89s-5,1-5-3s1-5,1-5l-3-4l5-7l5-6c0,0-3-9,0-10s2,8,4,10
		s8,11,12,10s10-3,11-9s-7-18-8-22s-3-8-3-8s2-6-5-5s-13,8-12,11s-9,2.55-9,6.78c0,4.22-3,8.22-3,8.22s-1-3-6,0s-4,10-4,10s-7,1-6,9
		l-13,5v2.85L183,262c0,0-2,3.3,0,6.65c2,3.35,2.22,5.73-0.89,4.54C179,272,175,271,175,271s-7,0-8,4s-10,18-11,18s4,10,4,10
		s-4.26,5.56-4.13,6.78C156,311,154,317,154,317h-3c0,0,9,8,5,8s-9-2-10-1s-9,2-4,5s9,0,10,5s-4,10-4,10s4,6,2,7s-2,4,1,5s7,1,7,5
		s2,5,2,5s4,1,4,5s-5,8-5,8l-1,6l-4,3c0,0-4-6-6-5s2,6,1,7s-3,3-5,2s-5-1-5-1l1,6c0,0-4-3-5-1s-6,0-6,3s2,12,2,12l4,8c0,0,3,1,3,3
		s5,3,4,7s-3,11-6,11s-15-2-15-2l-17-13c0,0-2-7-5-10s-7-11-12-10s-15-1-15-1l-8-8v5.64L58,397v3.13c0,0-2-4.13-5-4.13s-7-5-7-5
		s-6-2-7-1s0,5,2,6s-3.78,1.26-2.39,4.63c0.97,2.35-2.13,3.06-3.09,3.95c1.17,1.26,2.3,2.63,0.48,1.42
		c-0.91-0.61-0.9-1.03-0.48-1.42C34.77,403.77,34,403,34,403v8.73c0,0-4-0.73-3,2.27s-1,5,2,8s4,7,4,7s-2,6,2,6s5-7,8-5s6,13,6,15
		s10,5,15,5s2,4,4,4s4,0,4,0s0,5-3,5s-1,8-5,9s-9,10-12,11s-15,6-16,8s-8.32,10.66-9.16,15.33C30,507,27.51,512,25.75,512
		C24,512,28,516,28,516v12l2,7v10c0,0-3,1-3,3s5,11,5,11s4,12,2,12s-6,9-6,9l-1,5c0,0-4.38,3.83-1.69,6.41S34,596,33,601s-2,8-2,14
		s2,12,2,12s4,5,2,8s-7,5-7,10s-2,10-2,10s-2.13,1.61-1.56,4.8C25,663,28,663,27,667s-1,4,6,6s11-3,14-2s3,6,9,5s8-2,11-1s8,2,12,1
		s7-3,13-1s19,2,19,2s2-5,6-5s16,0,16,0s1,4,3,4s9-2,10-5s3,0,5,1s10-6,10-6s6,4,8,1s-1-7,2-9s10-3,10-3l4-3c0,0,2,3,6-2s9,1,4-9
		c-2.54-5.08-3.27-6.8-3.38-7.27c-1.47-1.04-6.9-4.87-8.62-5.73c-2-1-8-9-8-13s3-9,3-9s-2-2-4-1s-7,2-7,2s-2,7-6,7s-14-1-14-1
		s3-4-4-4s-10-2-10-4s0-4,0-4h5c0,0,2-3,2-4s2-4,2-6s-4-3-4-2s-6,10-6,10l-3-9c0,0,5-4,3-7s-5-6-5-6s4-5,1-7s-6-7-6-7l5-9l1-7
		c0,0,2,3,5,3s6-2,6-2s1,7,5,6c0,0,0,8,2,7c0,0,1,6,3,6c0,0-5,8,0,10s8,10,8,10s4,3,7,6s9,0,9,0s11-2,12,5s-1,13,4,14s10,6,10,6
		s3,3,7,3s6,3,6,3h11c0,0,5-2,8,1s9,4,13,5s16,2,16,2l5,8l-1,5l14,14l9-1c0,0,0,6-8,6s9,11,9,11s11,3,12-1s-1-7,4-8s4,17,4,17l-3,1
		v17l-2,18l5,11l3,3c0,0-1,7,4,10s0,1,0,1s-1,6,3,15s5,15,6,21s6,12,6,12s4,4,6,1s2-8,7-7s8-3,10-7s5-3,5-3l1-10c0,0,7-8,7-12
		s-2-15,0-20c1.86-4.64,7-6,9-5s11-2,11-2v-6c0,0,7-1,10-3s5-7,6-6s5-1,5-1s12-12,13-12s5-1,5-1l8-5v-6l4-2c0,0,9-7,10-5s-4,6,3,4
		s16-5,16-5s5-9,9-6s9,12,9,15s13,10,13,10l-1,5c0,0,2-3,4,1s5,11.19,4,14.1c-1,2.9-3.91,9.98,1,10.9c10.16,1.91,12.44-3.84,15-6
		c2.76-2.32,7-8,9-6s6,5,6,10s5,9,5,9s-3,2,0,7s5,10,5,10l-1,9c0,0,4.23,5.88,2.12,6.94c-2.12,1.06-2.35,15.27-2.35,15.27L542,793
		c0,0,3.78-1.26,6.89,1.87C552,798,560,805,560,806s1.51,12.93,1.51,12.93l3.89,4.4v5.55c0,0,6.82,1.28,7.21,5.2
		C573,838,575,841,579,842s8,4,9,4c0.93,0,4.74,1.78,5.26,2.02c0.22,0.05,0.5,0.1,0.85,0.16c2.39,0.4,7.25,0.77,7.53-2.64
		c0.37-4.54-8.83-10.55-8.83-10.55v-20.24L575,804l-7-1c0,0-7-4-7-10s-8-8-10-9s-2.36-9.38-2.36-9.38v-4.79
		c0,0,8.36-6.83,8.36-10.83s-5-16-1-16s6-5,8-3s6,7,5,9s6.14,2.09,6.14,2.09S586,756,588,759s4,7,9,7s7.59,1.19,8.29,5.6
		c0.71,4.4,1.61,8.72,3.66,6.56C611,776,616,772,616,772s3,3,5,0s2-10,2-10h6l14.02-10.91c0,0,6.98-10.09,3.98-21.09
		s-12.05-20-12.05-20l-28.52-18l1.57-15l17-19c0,0,11-3,12-1s5,10,6,8s0.02-8.69,0.02-8.69l16.4-8.88c0,0,2,2.44,4.29,0
		c2.29-2.44,0-7.07,0-7.07L669,639l1-4h4.82c0,0,4.18-5,8.18-5s14-5,15-9s6-17,8-17s4.4,0,4.4,0v-7.54L712,593l1-11l4-7l2-19
		c0,0,0-5-2-5s0-8-2-7s-5,7-7,6s-8.33-6.17-4.67-6.09C707,544,714,540,713,538s-5-5-7-4s-9.48,2.6-10.74-0.2
		C694,531,702,532,702,532l7-3c0,0-5.6-3.38-7.8-2.19C699,528,695,515,692,515s-10.26,2-11.63,0c-1.37-2-5.37-7-2.37-9s6-11,6-14
		c0,0,3-3,7-6c3.28-2.46,4.21-0.89,4.44-0.24c-0.33-1.11-1.93-5.64-5.44-4.76c-4,1,0,5-2,4s-0.17-4.22-3.09-4.11
		C682,481,676,487,676,487s2,5,0,5s-6,0-6,0l-5-4l-8-2c0,0-3-8,1-8s2-7,2-7l9-8c0,0-2-11,2-11s9,0,9,2s-1,2-2,4s1,11,1,11s3,1,6-6
		s10-15,13-13s7,6,6,8s0,5,0,5s6,3,11,0s8,0,7,2s-5,4-1,7s8,3,8,3v5.38c0,0,0,3.62,3,3.62s7-7,7-7l5-3v-6.24L734,452l-7-1l-7-5
		h-6.32l-0.68-5h-3.1c0,0,11.1-12,9.1-17s-7-9-5-12s7-7,6-11s-4-10-1-9s7,5,8,3s7-13,7-17s-2-31-2-31l-8-29c0,0-17-19-19-19
		s-1-5-2-6s-13-3-13-3s2-5,3-5s-7.73-2-10.86,0c-3.14,2-2.14,4-1.14,6c0.29,0.58,0.75,1.08,1.26,1.49c1.41,0.63,2.74,1.51,2.74,1.51
		s-1.5-0.5-2.74-1.51c-1.58-0.7-3.26-1.08-3.26,0.51c0,3,1,7,1,7l-6-7l-1,5c0,0-1-6-6-4s-2,5-4,4s-5-1-5-1l2-26c0,0-3,0-4-5
		s3-3-2-18c0,0-7-11-2-16s8-11,11-14s1-8,0-8s9-11,10-8s0,7,0,7s6-2,5-5s1-13,1-13s-6,3-7,2s-13-19-15-20s1-11,1-11h4.2l-0.2-4l7,4
		l4-1l-8-11l-10-6c0,0,0-12,5-6s13,11,14,11s4,11,4,11s8,3,9,8s12,5,11,19c0,0,0,5,8,7c0,0-3,6,12,13s31,11,35,16s6,1,6,1L753,217z
		 M207,283v-1.73l2-8.27l3.5-1.83L218,275l-4.24,9.78l-6.76,1.78V283z M201.81,301.2L204,302l2.19-2.56V311H203l-5.57-3.49L200,301
		L201.81,301.2z M183.23,278.87c1.77-0.87,7.73-6.07,7.73-6.07l6.48-9.2C197,265,199,276,199,276l-7,6l-4.23-3.13
		C187.77,278.87,181.45,279.74,183.23,278.87z M163.71,393.25l7.91,1.52L176,389l9,3c0,0-7,3-8,3s1,3-3,5s-10.29-2.15-10.29-2.15
		V393.25z M231,448h-3l-3.64-4.47c0,0-6.36-0.53-7.07-1.81C216.59,440.43,215,440,215,440l-8-1v6l-7.37-3.28L204,451l1,6l4.47,5.46
		L204,471l1.94,2.23L212,469c0,0,5,13,4,13s-4,4-8.3,2s-6.7-2-7.7-2s1,4,7,6s0,4,0,4l-4-1v6l-5.57,7.85c0,0,2.57,6.15-2.43,9.15
		s-8-6-12-7s-11-2-11-5s-3-4-7-7s2.58-18,2.58-18H173c0,0,6-5,9.72-3.77S179,465,179,465l-5-20c0,0,2-11,2-16s6-2,9-2s1-6,3.27-8.42
		S191,420,191,420s1,5,3,4s2-4,2-4s14,2,20-1s10,11,10,11s0,8,3,9S231,448,231,448z M271,454l2,7l-15.08,12.23L248,468
		c0,0,3-22,11-19s2.71-2,2.71-2h5.55c0,0-5.26-5-0.26-3s11,3,11,3L271,454z M379.05,468c-4.95,0-18.05,0-18.05,0l-9,4.3
		c0,0,0,8.7,0,9.7l-3,2l-4-6l1.75-5.77l5.25-9.77l18,1.54c0,0,9,0,14,1S384,468,379.05,468z M550,387l-7,7v7.64l-7,7.36l-8-2l10-10
		c0,0-3-7.49,2-9.74s1-7.26,3-8.26s0.34-10,0.34-10s-1.34-6,0.66-6s2.37,0.06,2.37,0.06L549,372l3,9h-4.62L550,387z"/>
	<path opacity="0.22" d="M238.94,262.02L236,263C236,263,237.65,262.72,238.94,262.02z"/>
	<path opacity="0.22" d="M191.62,633.73C191.86,633.9,192,634,192,634S191.52,633.28,191.62,633.73z"/>
	<path opacity="0.22" d="M687,139c-0.15-0.3-0.39-0.52-0.69-0.7C686.95,139.19,687.31,139.62,687,139z"/>
</g>
<path d="M735,620c0,0,4-12,2-17s-2-9.84-2-10.92c0-1.08-2-6.08-4-5.08s-5,6-5,6s-3,10-1,15S735,620,735,620z"/>
</svg>
