<?xml version="1.0" encoding="utf-8"?>
<!-- Generator: Adobe Illustrator 28.5.0, SVG Export Plug-In . SVG Version: 9.03 Build 54727)  -->
<svg version="1.0" id="Warstwa_2" xmlns="http://www.w3.org/2000/svg" xmlns:xlink="http://www.w3.org/1999/xlink" x="0px" y="0px"
	 viewBox="0 0 1024 1024" enable-background="new 0 0 1024 1024" xml:space="preserve">
<path d="M308,32c0,0,5-10,12-2c0,0,3,3.02,0,4.01C317,35,318,37,318,37l-8,3c0,0-1,4,3,7c0,0-1.67,3.75,1.67,4.37
	C318,52,311,60,311,60s-4,3-2,6s5,5,5,5s1.33,1.03,0.67,2.02C314,74,313,77,317,75s8-2,8-5s-1-8-4-10s-7-9-4-11s11-7,15-8s2-4,2-4
	s-2.74-3.79-2-5c5.73-9.39,8.44-0.78,8,0c0,0,0,5,2,5s14-3,18,1s4,8,4,8s-1,4,6,3s9-4,17-5s8,2,10,2s12,6,17,3s11-7,11-7l-3-2l5-1
	c0,0,0-2-1-2s-7-2-7-2s3-4,5-2s2-5,4-2s0,5.01,0,5.01S424,40,430,39s13-2,13-2l13-2c0,0-2,3-3,3s-10,2-10,1s-1,2-1,2s4-3,5,1
	s-1,5-1,5s0-7,3-4s3,5,3,5s1,0,1-2s7.28,5.29,7.28,5.29L464,48c0,0,2,1,4,2s8,0,8,3s-4,3-4,3l-2,8h-6c0,0,3,4,6,3s5-3,5-3l7-1
	c0,0,7-1,9,2c0,0,11.1-0.21,21.55,13.89c0,0,0.55,2.71,0,4.41C512,85,512,91.18,512,91.18s0-8.18,3-7.18s7,1,10,4s3,5,3,5s1-3,4-2
	s3,6,3,6s-2-2,3-2s14,3,14,3s-1-4,1-4l10,1c0,0,2-2,3-2s11-2,13,1s5,1,5,1l5.06,3l7.94,1l8,6l7,5l2-1l6,9l-1-6l6,8l2,10l10,18
	c0,0,8-2,9,2s0,7.31,0,7.31l-4,3.69l-4,6c0,0,1,2-2,4s-6,2-6,2l-4,5c0,0,1,3-1,5s-2,7-4,8s-1,5-3,5s-2-2-5-1s-5,4-5,4s4-3,6-1
	s10-3,10-3s9-6,9-7s1-1,2,4s2.69,7,2.69,7l0.31,3c0,0,3.73-1,4.37,0c0.63,1,2.63-3,5.63-2s3,4,3,4l1-3c0,0,1-2,3-2s4,0,4,2s-3,9-3,9
	s4-10,5-10s6-4,6-5s4,3,4,3l-2-5c0,0,4,2,4-1s-3-5.41,0-7.7s12-2.3,12-2.3l13,5c0,0,6,1,6-2l-1,5l4-2l2,2l5,1c0,0,3,2,3,4s0-4,3-2
	s3-1,3-1l1,5c0,0,1-3,3,1s-1,7-1,7v1c0,0,3-4,4-3s2,3.88,0,4.94c-2,1.06-2,4.06-2,4.06l-2,8l5.15-5.91c0,0-1.15-4.09,0.85-6.09
	s5-1,4,2s-1,4-1,4l4-5l5-2c0,0,0-1,3-1s12,5,12,5s4,2,6,2s-2-3,1-2s8,3,9,3s16-4,20-2s35,27,35,27s5-1,6,4c0,0,6,0,7,4
	c0,0,15-4,18,1s6,14,6,16s6,20,4,26s-8,23-12,25s-10,11-10,11s-9,0-10,4s-3,4-3,4l1,4l-4,3l-2,5c0,0-6,14-9,15s-5,1-4-2s-1-5-2-3
	s-4,3-4,3l2.56,2.6c0,0,1.44,0.4-1.56,3.4s-3,5-3,5s3,0,3,1s-3,3-3,3s2,1,3,1s-2,10-2,10s0,14,1,17s-7,21-4,29s0.55,0,0.55,0
	S797,432,800,454c0,0,1,5-3,6s-4,7-4,7l-2,2c0,0,3,2-1,4s-6,3-6,5s-2,2-2,2s-1,1,0,3s-3,0-2,3s3,6,2,7s-7,3-9,3s-7,3-5,5s2,4,2,4
	h-1.66l-0.34,2l-14-1c0,0-2-3,0-4s-6-2-4,1s1.24,4,1.24,4l-5.24,1c0,0,0-4-4-3s-2.38,3-2.38,3s-1.62-3-4.62-1s-3,4-2,4
	s-4.47,0-4.47,0s-0.53,4-3.53,4s-3,4-3,4s-5-4-7-2s-5,4-5,4s-6,2-7,4s0,3-4,5s-8,1-9,4s-1,6-1,6l-4,3c0,0-1-6-2-4s-0.69,4-0.69,4
	l-4.31-1l4,3c0,0,2,3-1,3s0,3,0,3l-1,4l-3-4l2,6l1,1c0,0,1,12,0,17s3,9,0,11s-6,5-6,5s-7,5-10,12s-4,13-8,18s-10,14-13,15s-5,5-5,5
	s-5-4-1-5s10-2,9-4s2-3,2-3s0-3,2-4s1-7,4-5c0,0-1-6,1-6s5-4,2-3s-4,3-4,3h-2c0,0-5,0-4-2s1-3,1-3s-3,2-2,3s2,4,2,4s-3,3-2,6
	c0,0-3,0-2,2s-2,2-2,2v2c0,0-3-3-3,0s-1,5-1,5l-2,2c0,0-3,4,0,5s-1,4-1,4s0-1-1,4s-12,16-12,16l-4,9c0,0-3,5-6,5s-4,4-7,4
	s-13-1-13-1s1,1-1,2s-4-2-4-2h-5l-4-4c0,0-6-1-7,0s-3,2-3,2s-1-7-4-6s-2,6-2,6s1,2,5,3s13,7,12,9s-3,4-3,6s2,7,5,7s1-1,2-1s3,5,2,8
	s0,1-2,5s-6,7-7,10s0,4,0,4s-18,13-36,15s-17-1-17-1s-2.32,0.38-1.66,1.69S523,746,523,747s-2,3-1,4s2.77-2,3.89,0s0.11,9,0.11,9
	l-3-1c0,0,3,4,1,5s-1,4-1,4s4,0,4,2s-4,7-5,7s-7,4-11,3s-12-5-14-4s-5.25-0.68-3.62,4.16C495,785,497,787,497,787s-1,8,1,8s6-1,6,1
	s-2,2,0,3s5-1,5-1l-3-2c0,0,2-3,5-3s4,5,4,7s-2,5-4,5s-5-5-5-5s-4-2-4,0s-6,3-3,4s9,1,8,3s-5,2-6,4s1,4-2,5s1,7,1,7s2,4,0,6
	s-5,1-4,3s3,1,3,3s-3,2-5,2s-4,1-5,3s-4,1-4,1s-2,4-2,5s-1,7-2,6s-3,2,0,6s9,6,10,8s5.81-3,8.4,0c2.6,3,2.6,5,2.6,7s-5,5-5,5
	s3-3,4-1s-2,7-2,7s-8,6-9,8s-5,6-3,11s-3,9-3,9h-2.58c0,0,1.58-1,1.58,1s-4,3-4,3s-3,6-2,8s-1,3-1,3s2.49-2,3.25,0s3.75,5,2.75,6
	s1,2,2,3s4,5,4,5s3,1,1,2s-6-3-8-2s-2,5-2,5s2,0,3,1s1-4,4-2s7,7,7,7l-4,1l1,3h4.27l2.73,5c0,0,18,10,20,10s5-2,6-1s0,4,0,4l-5,1
	l-5.45,3.21c0,0-2.55-2.21-5.55-2.21s-12,1-12,1s3,0,2,2s-4,2-4,2s9,3,9,5s-3.68,0-3.68,0H494l-2-5v5h-3l-1-3l0.54,3.89L485,985
	c0,0,0,1-1,1s-3-1-3-1l3-2h-2l6-3l4-1h-6l-2-2l-2,2h-5c0,0-8-3-10-1s-3-1-3-1l9-2c0,0-2-5,0-4s5,2,5,2l2,3l-1-5l4,3l1-3l0.87,1.16
	L487,975l3-3l-11-2c0,0-3-3-2-5s7-5,6-6s-3-1-5,0s-3,1-4,1s-4-3-2-5s3,1,3-1s-3-3-3-3s1-3,2-1s4,2,4,1s3-4,0-4s-5,2-5,2s-1,1-3,2
	s0,5-1,6s1,6,1,6s0,5-1,5s-10,0-10-1c0-0.31-0.1-0.72-0.23-1.13c-0.3-0.92-0.77-1.87-0.77-1.87s0.33-0.83,0.79-1.75
	c0.67-1.33,1.61-2.85,2.21-2.25c1,1,4-4,4-4s0-2-1-2s-6,5-6,5h-3l5,1l-2,2h-2l1,2l1,3l-6-2l-4-3l1-5l4-2c0,0,2-2,3-2s6,1,6,0
	s-4-3-4-3l-5,2l-3,4c0,0-1-5-2-4s-3,4-3,4s3,2,3,3s-1,3-1,3l-4-4c0,0-1-2,0-3s7-5,7-5l-8,4v-5l3-1l-1-3l-3,2v-4l-1-2l-1,3
	c0,0-1,0-2-1s-4-5-2-5s4,0,2-1s-5-1-5-1s-3-1-1-3s-3-1-2-4s1-6,2-6s-3,0-3,0s2,1,0,2s-4-1-4-1l3-2l3-3h-4l1-2l-2-1l1-3c0,0-1,3-2,1
	s-5-12-3-13s3-3,3-3l-9-4c0,0,5-2,10-1s1-3,1-3l-3-4c0,0,3,5,0,5s-6-2-6-2s1,2-1,2s-5-4-2-4s0-3,1-3s3,0,4-3s-3-3-3-3s0-4-2-2
	s-1,3-1,3s-5-1-5-2s-1-4-1-4l-4,4c0,0,3,0,2,2s-5,1-5,1v-3c0,0,6-5,6-6s3-4,2-4s-6,3-4,0s6-2,6-2s-2-4,1-3s4,6,4,6l4,1c0,0,3-4,1-4
	s-2-2-2-2l2-3l-2-2c0,0,1-2,1-3s-1-5-1-5l5-5c0,0,3-5,1-5s-2,2-2,2l-6-4l2-6l-3-5c0,0,1-5,2-6s0-2-1-3s-3-6-1-6s0-1,0-2s3-2,3-2
	s1-2-1-2s-7,0-4-2s0-7-2-5s2,6-1,6s-7,1-7,0s1-1-1-3s-4-7-4-7v-15c0,0,3-1,3-3c0-1.94-0.94-13.33-5.59-16.73
	c-0.13-0.1-0.27-0.19-0.41-0.27c-5-3,0.14,0.08,0.14,0.08L393,751c0,0-5-3-4-5s2-2,0-3s2-2,2-2s6,0,3-4s1-5,1-5v-10c0,0,3-1,2-3
	s-3-2-1-5s4-13,4-16s-3-8,2-11l-3-8c0,0,0-2,2-2s-2-12-2-12l-1-7l-5-13c0,0-5-3,3-9c0,0-1-14-3-14s-3-4,0-9v-14l2-1l-3-7l3-1v-15
	c0,0-7-2,0-10c0,0,1-3-3-8v-16c0,0,2-4-1-3s-5-5-2-6s4-1,3-4s0-20,0-20l-4-10v-11c0,0-6-13-6-18s-3-6-3-6s-12-2-13-6s1-4-3-5
	s-8-4-8-4l-6-4l-7,1l-10-3c0,0-8-3-8-4s-4-2-4-2l-11-3c0,0-2-5-5-6s-8,0-8-3s-4-7-4-7l-3-1l1-6l-1-3.93l-5-5.07l-1-4l-9-7l-2-6
	c0,0-6-4-7-4s1-5-1-5s-8-8-8-8l-7-12l-5-8c0,0,0-2-1-3s-4-7-6-7s-4-3-8-8s-5-8-9-9s-7-4-12-4s-7-3-6-4s2-2,4-2s3-1,1-3s-6-5-6-5
	s-1-2,1-3s-4-3-4-3s-4-3.42,0-8.21c4-4.79,5-7.79,5-7.79l7-7c0,0,6-3,6-5s2-7,0-9s-3,3-3,3l-2-3c0,0-1,3-2,4s-4-2-4-2s-1-1-3-1
	s-4-1-4-1l3-5c0,0-1-1-1-3s-3,2-2-2s2-5,0-6s-3-3,0-4s6-3,5-4s2-3,0-4s4-7,4-7s-1-8-1-9s-1-4-1-4l9-4c0,0,7-2,7-4s3-7,0-6s-3-3,0-3
	s6,0,5-2s-3,0-3-3s2-6,3-6s9-2,9-2l-1-3l3-2v-4l4-2l-1-3c0,0,1-2,2-3s2-2,2-2s-1-2-2-2s-3,0-3,0s0,0,0-1s0-2,0-3s2-2,2-2l-1-6l-4-9
	c0,0-2-3,1-3s5-2,2-4s-7-4-5-5s4-2,2-4s-6-5-6-5v-2l-3-1l2-4l1-4c0,0-1,4,2,2s2-5,2-5l2-1l-2-4l-2-3l1-4l8,8c0,0-1,3,0,3s2,0,2,0v-5
	l-4-4l10-8c0,0-2-3,1-5s8-2,8-2s0,0,0-2s1-3-1-3s0-5,0-5h-2l3-3v-5l8-8l7,1c0,0-4,3-1,3s5-9,5-9s6,0,7,0s6-1,6-1s5-7,7-7s8-1,8-4
	s0-5,0-5l2-1L308,32z"/>
</svg>
