<?xml version="1.0" encoding="utf-8"?>
<!-- Generator: Adobe Illustrator 28.5.0, SVG Export Plug-In . SVG Version: 9.03 Build 54727)  -->
<svg version="1.0" id="Warstwa_2" xmlns="http://www.w3.org/2000/svg" xmlns:xlink="http://www.w3.org/1999/xlink" x="0px" y="0px"
	 viewBox="0 0 1024 1024" enable-background="new 0 0 1024 1024" xml:space="preserve">
<path d="M882,673c0,0,13,26,11,38s-11,20.04-11,20.04s-1,13.19,0,20.07C883,758,866,789,866,789l-4,29c0,0-7,17-18,20s-27-4-27-4
	l-11-39c0,0,13-30,15-30s4.82-4.25-1.59-9.13C813,751,812,726,817,725s27-21,33-18s15-14,15-14l6-11c0,0,1-15,6-12S882,673,882,673z
	"/>
<path d="M498,913c0,0,15.47,9.78,8,22c-11,18,6,25.24,6,25.24S523,974,530,969s15-6,18-5s5-6,5-6s22-1,25,2s18-2,22-5s9,3,13-1
	s33-32,33-32s24-29,23-33s8-6,11-15s4-24.25,0-28.12C676,842,699,833,699,833s10-2,13-9s2-23,2-23s-9-21-9-25s3.32-14.7,9.16-18.35
	C720,754,736,732,744,732s32-8,31-16s0.06-13.93,0.03-19.97C775,690,773,690,772,684s3.03-32.78,3.03-32.78L758,627c0,0,8-18,4-25
	s-7-18-2-20s33-50,33-50l32.48-29c0,0,16.52-10,18.52-13s15-14,15-14s20-22,20-26s9-19,11-26s9-15,11-19s5-27,5-27s3.86-7-9.57,0
	S878,386,872,386s-43,3-49,8s-13-8-12-9s-10-2-10-2l9.07-8.11c0,0-6.07-10.89-13.07-16.89s-18-21-27-22s-10-32-20-37s-20-19-18-23
	s5-21,0-26s-15-12-16-14s-2-11-3-15s-16-27-16-27s-7-12-9-21s-14-29-9-26s18,25,18,25l11-21c0,0-1-29-9-29s-11,4-19,2s-11-7-18-4
	s-21,11-29,9s-14.63-9.87-21.32-9.94S586,119,579,114s-11-16-30-11s-22,9-23,13s1,22-6,21s-18-9.06-22-9.53S486,130,483,127
	s-3-14-20-19s-36-8-41-13s-8-10-6-19s4-19,4-26s6.75-14.04-4.63-14.02S392,35,386,39s-14,2-25,2s-35,1-42,2s-30,11-33,13
	s-30,15-42,12c-10.85-2.71-14-11-24-10s-12,17-12,17s-2,7-6,10s-28,15-28,18s2,11-3,17s-5,18-5,21s-10,21-21,28c0,0-26,6-24,13
	s-5,14-6,14s-12,15-13,21s-7,14-10,14s-4,6-5,11s-13,5-10,10s15,32,14,41s3,14,0,19s-4,16-4,16s-3,3-5,7s-5.48,7.2-5.48,7.2
	S88,382,101,388s23,11,23,19s10,31,27,35s20,17,20,17s20,15,30,10s13-6,17-6s39-4,45,1s33-25,63-18s14,12,31,21s30,2,30,2
	s18,5,18,12s-7,54-7,54s18,31,27,40s2,14,7,20s9,14,10,20s0,23,4,30s9,16,6,21s-13,10-14,16s-11,39-12,41s5,20,10,29s14,22,14,29
	s1,15,9,22s3,29,3,29s1,9,4,15s-2,19,3,22s12,8,19,21S498,913,498,913z"/>
</svg>
