<?xml version="1.0" encoding="utf-8"?>
<!-- Generator: Adobe Illustrator 28.5.0, SVG Export Plug-In . SVG Version: 9.03 Build 54727)  -->
<svg version="1.0" id="Warstwa_2" xmlns="http://www.w3.org/2000/svg" xmlns:xlink="http://www.w3.org/1999/xlink" x="0px" y="0px"
	 viewBox="0 0 1024 1024" enable-background="new 0 0 1024 1024" xml:space="preserve">
<path d="M758,819c0,0,2,4,2,5s1,7-4,9s-2-4-2-4l-0.89-1.49C753.11,827.51,756,817,758,819z"/>
<path d="M845.09,826.08L850,823c0,0,7,4,7,7s-1,4.78,0,4.89s-3,3.11-3,3.11l-4.44-4.59L845.09,826.08z"/>
<path d="M851.13,840.72l6.98-2.72c0,0,3.9,2,2.9,4s-3.84,1.44-3.84,1.44l-4.11,0.07L851.13,840.72z"/>
<path d="M851.13,845.38c0,0,1.87,4.62,3.87,2.62s2-2.19,0-3.59S851.13,845.38,851.13,845.38z"/>
<path d="M775.17,840.75c0,0,2.83,2.25,1.83,4.25s-3,5-4,3s2.11-6.31,2.11-6.31"/>
<path d="M775.01,850.04l-2.21,7.38c0,0-1.79-0.05,2.21,11.27C779,880,784,882,784,886s0,7.94,0,7.94l4-1.94c0,0,4,5,4,6s-1,5-1,5
	s-1-8-5-8s0,6,0,6s7,16,9,18s2,7,10,7s3,2,3,2h-4.09c0,0-1.91,2-0.91,4s7.32,0,7.32,0s3.53-1.22,6.6,0.89C820,935,823,938,824,936
	s5-6,4-9s-3-5-3-5l5,1c0,0,3-1,3-2s1-8.16,0-9.58c-1-1.42,5,3.58,4,6.58s3-2,3-4s3-2,4-1s1.09,3.66,1.09,3.66S841,917,842,918
	s0,3,2,4s5,4,5,1s2-6.83,0-10.42c-2-3.58,3-18.58,3-18.58l3-6v1.86c0,0,2.32,1.84,2.16,3.49C857,895,858,895,858,889
	s-2-12.59-1.5-14.29s1.5-13.7,0-16.7c-1.5-3-4.5-9-6.5-6c0,0-1,3-3,3s-3-1-5-1s-4,4-4,4s-13,0-13,1s-2,4-2,4s-2-3-4-2s-7,3-9,2
	s-15-5-16-7s-5-4-8-4s-4,2-7,0S775.01,850.04,775.01,850.04z"/>
<path d="M814,798c0,0,1.31,1.31,1.62,3.36c0.13,0.87,0.08,1.88-0.33,2.98c-0.08,0.22-0.18,0.44-0.29,0.66l-3,1l-3-3
	c0,0-0.65-6-3.32-5s-4.68,2-4.68,2s1-6-2-6s-9-3-9-4s2-6,2-6l-4,2l-1-4l4,1l1.15-1c0,0,0.85-2-2.15-2s-5,4-5,4s-3,5-5,4s-6-4-6-4
	s9,0,8-3s0-10-4-9s-12,5-12,5l6.4,3.09c0,0-2.4,3.91-4.4,3.91s-8.81,3.35-11.41,5.67S751,796,748,796s-12-2-14-4s-9-7-12-7s-6,2-9,0
	s-7-5-9-4s-4,5-6,4s-8-7-9-8s-13-3-13-3s-6-4-6-5s-5-7-6-8s-8-8-7-10s3-9,3-11s-5-13-5-13s-6-8-9-10s-6-5-6-6s4-2,4-2l2,2
	c0,0,3-5,2-6s-4-3-6-1s-10,5-11,6s-12,1-12,1l9-13v-9l-4-11l-5-6.62c0,0-6,12.62-6,13.62s1,7-1,9s-8,6-11,6s-12,1-12,1l5-9l9-1l2-8
	c0,0-1-12,0-13s10-14,10-14l-1-6c0,0,0-2,1-6s-1-11-2-12s-1-2-1-2s0,6-1,7s-6,8-7,9s-2,5-3,7s-5,7-8,8s-13,7-15,11s-9,10-9,12
	s2,8,1,9s-6-2-6-2l-1,2c0,0-6-8-9-8s-5-2-5-2l3-3l4,4c0,0,1-3,0-6s-7-16-8-17s-5-4-5-7s-2-9-4-8s-7,0-8-1s-4-3-4-5s-2-6-2-6s3,1,3,0
	s1.03-3,0.51-4c-0.51-1-4.51-3-4.51-3s-6-6-8-6s-11,0-12-1s-6-6-9-5s-12,1-12,1s-10-4-11-6s-9-6-11-6s-10,1-12,2s-7,0-9,0
	s-17-1-18-1s-15,3-18,4s-12,6-13,6s-7,3-10,3s-9,4-10,4s-9,1-13,1s-15-1-17,0s-12,5-15,6s-15,8-17,8s-11,2-12,3s-5,6-5,6s-5,12-7,13
	s-7,5-8,6s-4,3-6,2s-5-3-8-3s-10,4-12,3s-3-2-6-2s-10-2-12-2s-14,1-14,1l-12,3c0,0-8-2-10-1s-3,0-6,3s-6,5-6,6s-4,4-6,4s-6,0-8,2
	s-10,7-11,8s-8,7-11,7s-12,0-12,0l-8-1l-9-1c0,0-9-2-10-2s-7-4-8-4s-7-7-8-8s-9-3-10-3s-2-2-3-3s-1-9-1-9v-10.69c0,0,2,2.69,6,2.69
	s8-3,9-7s0.85-10.48,0-11c-0.81-0.5,0.24-5.53,2-12c1.31-4.82,0-14,0-14l-3-8l-9-17c0,0-5-11.55-5-16.28C80,567,78,548,78,548
	s-2-8-3-8s-4.67-3.83-4.83-5.41C70,533,69,527,68,526s-8-8-8-10s0-12-1-14s-4-14-6-15s-15-20-15-20s0,2,2,1s2-5,2-5s2,10,5,12
	s4,2,5,0s-2-8-2-8s-5-7-6-9s-2-8,0-7s6,6,6,6v7c0,0,1,1,2,1s1-3,1-3l2,6c0,0,1,3,3,3s6-3,5-5s-2-8-3-10s-9-18-9-18l-8-16v-10l6-14
	c0,0,3-9,3-11s-4-12-1-17s3-13,6-14s3.06,0,3.06,0L59,362c0,0-1,1,0,3s1,2,1,4s0,3,0,3s4-3,5-4s5-10,6-11s15-6,17-8s19-15,19-15
	s8-7,16-7s18,0,24-3s11-5,16-7s9-7,11-7s10.12,2,16.56,0s17.44-5,19.44-5s15-6,19-13s6-17,10-19s12-8,12-10s-3-4-3-6s-5-14,1-17
	c0,0,8-6,9-7s8-12,8-12l14,28c0,0,1-10,1-11s2-1,2-1s-1,3,1,2s2-5,2-5s-6-7-7-8s-1-3-1-3h3v-6c0,0-1.01-1,1.99,0s5.01,4,5.01,4
	s2-4,4-3s4,2,6,2s10,1,10,1l-9-3c0,0,0-4,1-4s2,2,4-2s2-5,2-5s-3,1-4,4s-3-6-3-6s1-6,3-6s-2-4-2-4l3-2l1,6c0,0,1-5,2-5s5,1,7,3
	s6-2,3-2s-5,0-5-1s-2-5,0-5s4-2,4-2l6,2l0.86-2c0,0-5.86-3-4.86-5s-1-3-1-3l-1-5l2-1l1,4l-1,2l1,2c0,0-1-2,2-3s7-5,7-7s1-5,2-3
	s-1,8-1,8s1-3,3-2s3,4,3,4s5-7,5-9s-1-4-1-5s-2-4,1-2s4,6,4,6s-1-5,1-4s5,3,7,2s5-9,5-9s3,0,5,1s10,7,12,8s12,14,13,14s-1,12-1,14
	s1-5,4-1s0,1,0,1l-1-5l7-7c0,0,8-1,9,0s8,7,8,9s1-6,1-6s5-2,9,4c0,0-3-8,4-6c0,0-8-1-3-7c0,0-13,2-3-11c0,0,0,2,3-4s-1-7,7-9
	s4-8,4-9s-1-7,3-7s0-3,2-4s6-1,6-1s-3-4,0-4s5,2,5,2s-1-4,2-5s1-7,4-6s5-2,5-2l2,5c0,0,3,2,5,1s15-3,17-1s2,3,2,3s-1-7,3-6s5,1,5,1
	l-5-4l1-9l-4-4l-6,2l-7-4c0,0-5-5,0-4s7,2,7,2l3.27-2.13L489,98l-1-6c0,0,3-3,3-2s0,10-1,10s2,1,3,2s2,1,5-1s5.4,6.51,8.2,7.26
	C509,109,519,110,521,111s8,7,12,6s6-5,9-2s3,5,9,4s17-8,17-8l-2,3l1,1c0,0-3,2-3,4s0,2,0,2s0-4,3-2s4,6,7,6s2-1,3-3s-4-7,0-7
	s5-3,8,2s6,7,7,6s-5,8-6,8s-4,1-4,4s2,7,0,8s-5,0-6,0s-7,3-7,3s0,14-1,16s-6,10-7,11s-2,3-3,7s4,9,6,10s13,8,13,10s5,3,5,3l1-3l1,4
	h3v4c0,0,8,2,9,2s11,5,13,7s7,10,11,11s12,3,16,4s7,5,9,10s13,8,13,8s11,7,19,0s10-15,10-15l7-13c0,0,3-14,4-17s2-16,3-17
	s-3-11-2-15s2-8,0-12s-1-6,1-10s0-17,4-17s5,1,5,1s1-4-2-5s-5-8-3-11s4-5,4-5l1,3c0,0,0-8,1-11s4-23,12-20s3,0,3,0s-5,1-2,3s5-2,6,9
	s-2,12,2,14s6-2,6,1s-5,6-1,9s5,1,7,8s3,20,3,20s0,19,6,21s-1,3,4,3s9-6,9-6s2-2,5,2s2,7,7,9s9,2,10,9s0,8,1,14s5,29,10,31s4,0,4,0
	s-4,0,0,7s4,11,3,16s-3,9-1,11s3,0,3,0s3-4,4,0s-2,3-2,3l-2-2l-2,1c0,0,6,2,6,4s0,7,0,7s0,5,8,9s9,4,11,5s5-1,6,0s3,4,4,6s15,8,17,9
	s14,11,14,12s-4,0-4,0s-2,2,0,4s9,11,9,11s5,10,6,12s2,6,2,8s2,10,5,12s6,6,6,6v-9.33l-1-1.67c0,0,1-2.79,1-2.4c0,0.4,1,4.4,1,4.4h3
	c0,0,6,8,8,8s3,1,3,1s-3-5.2,0-4.6s4,1.6,5,7.6s-2,12,0,16s9,11,9,11v-2.3c0,0-6-7.7-3-5.7s7,4,6,5s-2,2-2,2s-0.69,2.95,2.16,4.48
	C930,409,940,412,942,416s2,4,6,9s4,5,7,10s3,6,6,8s3,5,4,8s0-6,2-8s6-7,5-9s-3-4-2-4s2-4,4,1s0,10-1,12s-3,12-4,13s-4-1-4-1
	s2,5,5,5s0,5,0,5s-1,27,0,30s4.86,13.18,4.86,13.18S973,503,976,501s2-2,2-2l-3-5c0,0,0-7,2-6s0,8,0,8l2,4c0,0,1,8-1,7s-2,3-2,3
	s3,4,4,11s3,12,2,15s-5,6-6,9s-3,19-3,20s-5,9-5,13s-1,13-1,15s-2,13-4,15s-6,10-6,10s0,6-3,9s-7,5-7,5s5,0,2,2s-12,8-12,8l-9,14
	c0,0,1,10-3,11s1,2,1,2s-12,7-10,25c0,0-3-1-3,1s1,3,1,3s-4,0-4,2s-9,15-9,15s-4,27-4,30s2,13-1,15s-9,6-9,6s-2,3-4,3s-15,1-15,1
	s-13,0-19,3s-9,3-11,6s-10,11-13,12s-8,2-11,2s-7-2-5,2s2,6,4,4"/>
<path d="M615,718c0,0,10,0,5-2s-12-2-12-2l-1-3c0,0,9-0.51,0-0.76c-9-0.24-24,2.76-24,5.76s1,9,8,7s12,1,15-1s5.85-5.18,5.85-5.18
	L615,718z"/>
<path d="M648,238c0,0,3-6,4-5s5,2,4,4S648,238,648,238z"/>
<path d="M643,228c0,0,1,5,4,2s4-5,7-5s2-5-1-4s-6,0-7,2S643,228,643,228z"/>
<polygon points="588,199 589,203 592,201 "/>
<path d="M594.24,201c0,0,1.76,5,0.76,6s-4-1-4-2S594.24,201,594.24,201z"/>
<path d="M575,153c2,3,4,6,3,6s-1,1-3,1s-2-2-2-2L575,153z"/>
<path d="M587,155c0,0-1,5.78,1,3.89s2-3.4,2-3.4v7.24c0,0-1.62,4.71,1,4.27s2.58,0.47,2.58,0.47l-3.58,3.7c0,0-9.47-2.87-11.73-2.52
	S579,165,579,165s1-7,3-8s4.35-2,4.35-2"/>
<path d="M574,108c0,0,8-3,8-5s8-3,7-11s-7,9-7,9S570,105,574,108z"/>
<path d="M459,95c0,0,9,3,6,7s-4,2-5,5s-3,6-6,6s-9-3-9-3s-1,2-3,2s-4-3-6-2s-4,2-4,2s-3-4.06,0-4.53c3-0.47,2-3.47,2-4.47
	s0.78-9.14,3.89-4.07C441,104,440,96,440,96s2,3,7,3s7.65,0.86,8.32-0.07"/>
<path d="M38,464.53c0,0-2-15.53-3-15.53s-4,2-4,2s4,10,5,12S38,464.53,38,464.53z"/>
<path d="M85,329l6-4c0,0,2,3.28,0,5.14C89,332,86,331,86,331L85,329z"/>
<path d="M829,930c0,0,1,4,3,3s5-4,4-6s-2-3-4-1S829,930,829,930z"/>
<path d="M713,79c0,0-7,6-2,6s5-2,5-2L713,79z"/>
<path d="M712,71c0,0,2,4,3,3s4,1,4,1s-2-4.34-3-4.67S714,67,714,67L712,71z"/>
</svg>
