<?xml version="1.0" encoding="utf-8"?>
<!-- Generator: Adobe Illustrator 28.5.0, SVG Export Plug-In . SVG Version: 9.03 Build 54727)  -->
<svg version="1.0" id="Warstwa_2" xmlns="http://www.w3.org/2000/svg" xmlns:xlink="http://www.w3.org/1999/xlink" x="0px" y="0px"
	 viewBox="0 0 1024 1024" enable-background="new 0 0 1024 1024" xml:space="preserve">
<path fill="none" stroke="#000000" stroke-width="25" stroke-miterlimit="10" d="M784.91,670H263.09
	c-25.45,0-46.09-20.63-46.09-46.09V138.09C217,112.63,237.63,92,263.09,92h521.82c25.45,0,46.09,20.63,46.09,46.09v485.82
	C831,649.37,810.37,670,784.91,670z"/>
<path fill="none" stroke="#000000" stroke-width="25" stroke-miterlimit="10" d="M726.41,610.5H319.59
	c-25.45,0-46.09-20.63-46.09-46.09V186.59c0-25.45,20.63-46.09,46.09-46.09h406.82c25.45,0,46.09,20.63,46.09,46.09v377.82
	C772.5,589.87,751.87,610.5,726.41,610.5z"/>
<line fill="none" stroke="#000000" stroke-width="25" stroke-miterlimit="10" x1="273.5" y1="552.5" x2="440.5" y2="370.5"/>
<line fill="none" stroke="#000000" stroke-width="25" stroke-miterlimit="10" x1="425.5" y1="372.5" x2="527.5" y2="474.5"/>
<line fill="none" stroke="#000000" stroke-width="25" stroke-miterlimit="10" x1="512.5" y1="473.5" x2="673.5" y2="313.5"/>
<line fill="none" stroke="#000000" stroke-width="25" stroke-miterlimit="10" x1="666.5" y1="323.5" x2="772.5" y2="454.5"/>
<circle fill="none" stroke="#000000" stroke-width="25" stroke-miterlimit="10" cx="394.5" cy="259.5" r="38"/>
<rect x="398.5" y="670.5" fill="none" stroke="#000000" stroke-width="25" stroke-miterlimit="10" width="259" height="199"/>
<line fill="none" stroke="#000000" stroke-width="25" stroke-miterlimit="10" x1="527.5" y1="873.5" x2="527.5" y2="869.5"/>
<line fill="none" stroke="#000000" stroke-width="25" stroke-miterlimit="10" x1="527.5" y1="808.5" x2="527.5" y2="669.5"/>
<path fill="none" stroke="#000000" stroke-width="25" stroke-miterlimit="10" d="M614.5,838.26v1.48
	c0,16.44-13.32,29.76-29.76,29.76H474.26c-16.44,0-29.76-13.32-29.76-29.76v-1.48c0-16.44,13.32-29.76,29.76-29.76h110.48
	C601.18,808.5,614.5,821.82,614.5,838.26z"/>
<path fill="none" stroke="#000000" stroke-width="25" stroke-miterlimit="10" d="M809.5,937.5h-565c-18.78,0-34-15.22-34-34v0
	c0-18.78,15.22-34,34-34h565c18.78,0,34,15.22,34,34v0C843.5,922.28,828.28,937.5,809.5,937.5z"/>
</svg>
