<?xml version="1.0" encoding="utf-8"?>
<!-- Generator: Adobe Illustrator 28.5.0, SVG Export Plug-In . SVG Version: 9.03 Build 54727)  -->
<svg version="1.0" id="Warstwa_2" xmlns="http://www.w3.org/2000/svg" xmlns:xlink="http://www.w3.org/1999/xlink" x="0px" y="0px"
	 viewBox="0 0 1024 1024" enable-background="new 0 0 1024 1024" xml:space="preserve">
<path fill="none" stroke="#000000" stroke-width="25" stroke-miterlimit="10" d="M780.03,803H250.97
	C192.99,803,146,756.01,146,698.03V351.97C146,293.99,192.99,247,250.97,247h529.07C838.01,247,885,293.99,885,351.97v346.07
	C885,756.01,838.01,803,780.03,803z"/>
<path fill="none" stroke="#000000" stroke-width="25" stroke-miterlimit="10" d="M647.28,717.5H372.72
	c-77.44,0-140.22-62.78-140.22-140.22V468.72c0-77.44,62.78-140.22,140.22-140.22h274.55c77.44,0,140.22,62.78,140.22,140.22v108.55
	C787.5,654.72,724.72,717.5,647.28,717.5z"/>
<circle fill="none" stroke="#000000" stroke-width="25" stroke-miterlimit="10" cx="773" cy="750" r="14.5"/>
<ellipse fill="none" stroke="#000000" stroke-width="25" stroke-miterlimit="10" cx="260" cy="750" rx="40.5" ry="14.5"/>
<circle fill="none" stroke="#000000" stroke-width="25" stroke-miterlimit="10" cx="711.5" cy="756.5" r="7"/>
<path fill="none" stroke="#000000" stroke-width="25" stroke-miterlimit="10" d="M619.5,660.5c0,0,95,6.38,96-35.81"/>
<polygon fill="none" stroke="#000000" stroke-width="25" stroke-miterlimit="10" points="293.5,866.5 225.5,866.5 249.5,807.5 
	317.5,807.5 "/>
<polygon fill="none" stroke="#000000" stroke-width="25" stroke-miterlimit="10" points="745.5,866.5 813.5,866.5 789.5,807.5 
	721.5,807.5 "/>
<path fill="none" stroke="#000000" stroke-width="25" stroke-miterlimit="10" d="M581.5,246.5h-115v0c0-30.38,24.62-55,55-55h5
	C556.88,191.5,581.5,216.12,581.5,246.5L581.5,246.5z"/>
<line fill="none" stroke="#000000" stroke-width="25" stroke-miterlimit="10" x1="690.5" y1="109.5" x2="574.5" y2="200.5"/>
<line fill="none" stroke="#000000" stroke-width="25" stroke-miterlimit="10" x1="291.5" y1="101.5" x2="469.5" y2="206.5"/>
<circle fill="none" stroke="#000000" stroke-width="25" stroke-miterlimit="10" cx="292" cy="102" r="14.5"/>
<circle fill="none" stroke="#000000" stroke-width="25" stroke-miterlimit="10" cx="691" cy="107" r="13.5"/>
</svg>
