<?xml version="1.0" encoding="utf-8"?>
<!-- Generator: Adobe Illustrator 28.5.0, SVG Export Plug-In . SVG Version: 9.03 Build 54727)  -->
<svg version="1.0" id="Warstwa_2" xmlns="http://www.w3.org/2000/svg" xmlns:xlink="http://www.w3.org/1999/xlink" x="0px" y="0px"
	 viewBox="0 0 1024 1024" enable-background="new 0 0 1024 1024" xml:space="preserve">
<path fill="none" stroke="#000000" stroke-width="25" stroke-miterlimit="10" d="M721.55,179h-436.1c-1.91,0-3.45,1.54-3.45,3.45
	v616.1c0,1.91,1.54,3.45,3.45,3.45h436.1c1.91,0,3.45-1.54,3.45-3.45v-616.1C725,180.54,723.46,179,721.55,179z M682.5,445.5h-352
	v-213h352V445.5z"/>
<path fill="none" stroke="#000000" stroke-width="25" stroke-miterlimit="10" d="M896.55,344.38l-123.02,603.7
	c-0.38,1.86-2.2,3.07-4.07,2.69l-427.32-87.08c-1.87-0.38-3.07-2.2-2.69-4.07L351.19,802h370.36c1.91,0,3.45-1.54,3.45-3.45V305.9
	l168.86,34.41C895.73,340.69,896.93,342.51,896.55,344.38z"/>
<path fill="none" stroke="#000000" stroke-width="25" stroke-miterlimit="10" d="M615.5,66.95V179H285.45
	c-1.91,0-3.45,1.54-3.45,3.45V686.5H175.95c-1.91,0-3.45-1.54-3.45-3.45V66.95c0-1.91,1.54-3.45,3.45-3.45h436.1
	C613.96,63.5,615.5,65.04,615.5,66.95z"/>
<rect x="330.5" y="232.5" fill="none" stroke="#000000" stroke-width="25" stroke-miterlimit="10" width="352" height="213"/>
<line fill="none" stroke="#000000" stroke-width="25" stroke-miterlimit="10" x1="331.5" y1="438.5" x2="422.5" y2="319.5"/>
<line fill="none" stroke="#000000" stroke-width="25" stroke-miterlimit="10" x1="416.5" y1="330.5" x2="500.5" y2="385.5"/>
<line fill="none" stroke="#000000" stroke-width="25" stroke-miterlimit="10" x1="484.5" y1="386.5" x2="571.5" y2="295.5"/>
<line fill="none" stroke="#000000" stroke-width="25" stroke-miterlimit="10" x1="563.5" y1="304.5" x2="674.5" y2="433.5"/>
<line fill="none" stroke="#000000" stroke-width="25" stroke-miterlimit="10" x1="682.5" y1="512.5" x2="337.5" y2="512.5"/>
<line fill="none" stroke="#000000" stroke-width="25" stroke-miterlimit="10" x1="484.5" y1="562.5" x2="682.5" y2="562.5"/>
<line fill="none" stroke="#000000" stroke-width="25" stroke-miterlimit="10" x1="670.5" y1="628.5" x2="615.5" y2="628.5"/>
<line fill="none" stroke="#000000" stroke-width="25" stroke-miterlimit="10" x1="585" y1="628.5" x2="330.5" y2="628.5"/>
<line fill="none" stroke="#000000" stroke-width="25" stroke-miterlimit="10" x1="670.5" y1="684.5" x2="467" y2="684.5"/>
<line fill="none" stroke="#000000" stroke-width="25" stroke-miterlimit="10" x1="375.14" y1="684.5" x2="330.5" y2="684.5"/>
<line fill="none" stroke="#000000" stroke-width="25" stroke-miterlimit="10" x1="411.5" y1="734.5" x2="541.5" y2="734.5"/>
</svg>
