<?xml version="1.0" encoding="UTF-8"?>
<svg id="Warstwa_2" xmlns="http://www.w3.org/2000/svg" viewBox="0 0 1024 1024">
  <defs>
    <style>
      .cls-1 {
        fill: #1d1d1b;
      }

      .cls-2 {
        fill: none;
        stroke: #1d1d1b;
        stroke-miterlimit: 10;
        stroke-width: 35px;
      }
    </style>
  </defs>
  <rect class="cls-2" x="157" y="208" width="735" height="559" rx="31.49" ry="31.49"/>
  <path class="cls-1" d="M217,264v447h612v-447H217ZM511.5,647c-82.01,0-148.5-66.49-148.5-148.5s66.49-148.5,148.5-148.5c.17,0,.33,0,.5,0v147.99h147.99c0,.17,0,.33,0,.5,0,82.01-66.49,148.5-148.5,148.5ZM552,467v-147.99c81.62.27,147.72,66.38,147.99,147.99h-147.99Z"/>
  <path class="cls-2" d="M607.93,207.11l-169.77,1.79c-5.07.05-8.76-4.79-7.35-9.66l31.61-109.76c.93-3.24,3.9-5.47,7.27-5.47h105.68c3.34,0,6.29,2.19,7.25,5.39l32.48,107.97c1.45,4.83-2.13,9.7-7.17,9.75Z"/>
  <path class="cls-2" d="M367.32,918.5h-97.65c-6.72,0-12.18-5.45-12.18-12.18l37-127.65c0-6.72,5.45-12.18,12.18-12.18h97.65c6.72,0,12.18,5.45,12.18,12.18l-37,127.65c0,6.72-5.45,12.18-12.18,12.18Z"/>
  <path class="cls-2" d="M735.32,766.5h-97.65c-6.72,0-12.18,5.45-12.18,12.18l37,127.65c0,6.72,5.45,12.18,12.18,12.18h97.65c6.72,0,12.18-5.45,12.18-12.18l-37-127.65c0-6.72-5.45-12.18-12.18-12.18Z"/>
</svg>