<?xml version="1.0" encoding="UTF-8"?>
<svg id="Warstwa_8" xmlns="http://www.w3.org/2000/svg" viewBox="0 0 1024 1024">
  <defs>
    <style>
      .cls-1 {
        fill: #1d1d1b;
      }
    </style>
  </defs>
  <path class="cls-1" d="M144,684h738v228.38c0,13.04-10.58,23.62-23.62,23.62H167.62c-13.04,0-23.62-10.58-23.62-23.62v-228.38h0Z"/>
  <rect class="cls-1" x="144" y="414" width="27" height="288"/>
  <rect class="cls-1" x="855" y="414" width="27" height="288"/>
  <path class="cls-1" d="M248.4,351c0,49.71-39.49,90-88.2,90s-88.2-40.29-88.2-90c0,0,176.4,0,176.4,0Z"/>
  <path class="cls-1" d="M424.8,351c0,49.71-39.49,90-88.2,90s-88.2-40.29-88.2-90c0,0,176.4,0,176.4,0Z"/>
  <path class="cls-1" d="M601.2,351c0,49.71-39.49,90-88.2,90s-88.2-40.29-88.2-90c0,0,176.4,0,176.4,0Z"/>
  <path class="cls-1" d="M777.6,351c0,49.71-39.49,90-88.2,90s-88.2-40.29-88.2-90c0,0,176.4,0,176.4,0Z"/>
  <path class="cls-1" d="M954,351c0,49.71-39.49,90-88.2,90s-88.2-40.29-88.2-90c0,0,176.4,0,176.4,0Z"/>
  <path class="cls-1" d="M810,72H216l-144,243h882l-144-243ZM738,216h-450v-63h450v63Z"/>
</svg>