<?xml version="1.0" encoding="utf-8"?>
<!-- Generator: Adobe Illustrator 28.5.0, SVG Export Plug-In . SVG Version: 9.03 Build 54727)  -->
<svg version="1.0" id="Warstwa_1" xmlns="http://www.w3.org/2000/svg" xmlns:xlink="http://www.w3.org/1999/xlink" x="0px" y="0px"
	 viewBox="0 0 1024 1024" enable-background="new 0 0 1024 1024" xml:space="preserve">
<rect x="96.5" y="297.5" fill="none" stroke="#000000" stroke-width="25" stroke-miterlimit="10" width="847" height="616"/>
<rect x="170.5" y="368.5" fill="none" stroke="#000000" stroke-width="25" stroke-miterlimit="10" width="709" height="304"/>
<line fill="none" stroke="#000000" stroke-width="25" stroke-miterlimit="10" x1="170.5" y1="631.5" x2="364.5" y2="498.5"/>
<line fill="none" stroke="#000000" stroke-width="25" stroke-miterlimit="10" x1="350.5" y1="497.5" x2="452.5" y2="582.5"/>
<line fill="none" stroke="#000000" stroke-width="25" stroke-miterlimit="10" x1="440.5" y1="577.5" x2="576.5" y2="422.5"/>
<line fill="none" stroke="#000000" stroke-width="25" stroke-miterlimit="10" x1="561.5" y1="427.5" x2="879.5" y2="672.5"/>
<line fill="none" stroke="#000000" stroke-width="25" stroke-miterlimit="10" x1="255.5" y1="720.5" x2="819.5" y2="720.5"/>
<line fill="none" stroke="#000000" stroke-width="25" stroke-miterlimit="10" x1="174.5" y1="803.5" x2="361.5" y2="803.5"/>
<line fill="none" stroke="#000000" stroke-width="25" stroke-miterlimit="10" x1="519.5" y1="813.5" x2="833.5" y2="813.5"/>
<line fill="none" stroke="#000000" stroke-width="25" stroke-miterlimit="10" x1="371.5" y1="865.5" x2="457.5" y2="865.5"/>
<path d="M223.25,343.5h-10.9c-32.72,0-59.25-26.53-59.25-59.25v0c0-32.72,26.53-59.25,59.25-59.25h10.9
	c32.72,0,59.25,26.53,59.25,59.25v0C282.5,316.97,255.97,343.5,223.25,343.5z"/>
<path d="M839.25,344.5h-10.9c-32.72,0-59.25-26.53-59.25-59.25v0c0-32.72,26.53-59.25,59.25-59.25h10.9
	c32.72,0,59.25,26.53,59.25,59.25v0C898.5,317.97,871.97,344.5,839.25,344.5z"/>
<line fill="none" stroke="#000000" stroke-width="25" stroke-miterlimit="10" x1="218.5" y1="284" x2="218.5" y2="93"/>
<line fill="none" stroke="#000000" stroke-width="25" stroke-miterlimit="10" x1="833.5" y1="306" x2="833.5" y2="115"/>
</svg>
