<?xml version="1.0" encoding="utf-8"?>
<!-- Generator: Adobe Illustrator 28.5.0, SVG Export Plug-In . SVG Version: 9.03 Build 54727)  -->
<svg version="1.0" id="Warstwa_2" xmlns="http://www.w3.org/2000/svg" xmlns:xlink="http://www.w3.org/1999/xlink" x="0px" y="0px"
	 viewBox="0 0 1024 1024" enable-background="new 0 0 1024 1024" xml:space="preserve">
<path fill="none" stroke="#000000" stroke-width="25" stroke-miterlimit="10" d="M802.81,873H291.19C245.8,873,209,836.2,209,790.81
	V365.19c0-45.39,36.8-82.19,82.19-82.19h511.62c45.39,0,82.19,36.8,82.19,82.19v425.62C885,836.2,848.2,873,802.81,873z"/>
<path fill="none" stroke="#000000" stroke-width="25" stroke-miterlimit="10" d="M760.33,812.5H335.67
	c-34.34,0-62.17-27.84-62.17-62.17V418.67c0-34.34,27.84-62.17,62.17-62.17h424.66c34.34,0,62.17,27.84,62.17,62.17v331.66
	C822.5,784.66,794.66,812.5,760.33,812.5z"/>
<path fill="none" stroke="#000000" stroke-width="25" stroke-miterlimit="10" d="M711.5,524.5h-330c-33.69,0-61-27.31-61-61v0
	c0-33.69,27.31-61,61-61h330c33.69,0,61,27.31,61,61v0C772.5,497.19,745.19,524.5,711.5,524.5z"/>
<line fill="none" stroke="#000000" stroke-width="25" stroke-miterlimit="10" x1="252.5" y1="593.5" x2="847.5" y2="593.5"/>
<line fill="none" stroke="#000000" stroke-width="15" stroke-miterlimit="10" x1="328.5" y1="633.5" x2="650.5" y2="633.5"/>
<line fill="none" stroke="#000000" stroke-width="15" stroke-miterlimit="10" x1="302.5" y1="665.5" x2="622.5" y2="665.5"/>
<line fill="none" stroke="#000000" stroke-width="15" stroke-miterlimit="10" x1="297.5" y1="701.5" x2="622.5" y2="701.5"/>
<line fill="none" stroke="#000000" stroke-width="15" stroke-miterlimit="10" x1="328.5" y1="736.5" x2="650.5" y2="736.5"/>
<line fill="none" stroke="#000000" stroke-width="15" stroke-miterlimit="10" x1="363.5" y1="766.5" x2="687.5" y2="766.5"/>
<circle fill="none" stroke="#000000" stroke-width="15" stroke-miterlimit="10" cx="730" cy="691" r="63.5"/>
<circle cx="730" cy="691" r="27.5"/>
<polygon points="602,278 288.5,105 296.5,90 696.5,278 "/>
<circle cx="277.5" cy="90.5" r="46.5"/>
<polygon fill="none" stroke="#000000" stroke-width="25" stroke-miterlimit="10" points="354.5,980.5 262.5,979.5 301.5,873.5 
	393.5,874.5 "/>
<polygon fill="none" stroke="#000000" stroke-width="25" stroke-miterlimit="10" points="745.5,980.5 837.5,979.5 798.5,873.5 
	706.5,874.5 "/>
<line fill="none" stroke="#000000" stroke-width="11" stroke-miterlimit="10" x1="367.5" y1="437.5" x2="367.5" y2="487.5"/>
<line fill="none" stroke="#000000" stroke-width="11" stroke-miterlimit="10" x1="418.5" y1="438.5" x2="418.5" y2="488.5"/>
<line fill="none" stroke="#000000" stroke-width="11" stroke-miterlimit="10" x1="468.5" y1="439.5" x2="468.5" y2="484.5"/>
<line fill="none" stroke="#000000" stroke-width="11" stroke-miterlimit="10" x1="532.5" y1="444.5" x2="532.5" y2="479.5"/>
<line fill="none" stroke="#000000" stroke-width="11" stroke-miterlimit="10" x1="581.5" y1="429.5" x2="581.5" y2="474.5"/>
<line fill="none" stroke="#000000" stroke-width="11" stroke-miterlimit="10" x1="632.5" y1="438.5" x2="632.5" y2="485.5"/>
<line fill="none" stroke="#000000" stroke-width="11" stroke-miterlimit="10" x1="683.5" y1="438.5" x2="683.5" y2="480.5"/>
<line fill="none" stroke="#000000" stroke-width="11" stroke-miterlimit="10" x1="725.5" y1="435.5" x2="725.5" y2="485.5"/>
<line fill="none" stroke="#000000" stroke-width="11" stroke-miterlimit="10" x1="650.5" y1="458.5" x2="729.5" y2="458.5"/>
<line fill="none" stroke="#000000" stroke-width="11" stroke-miterlimit="10" x1="536.5" y1="460.5" x2="602.5" y2="461.5"/>
<line fill="none" stroke="#000000" stroke-width="11" stroke-miterlimit="10" x1="367.5" y1="458.5" x2="489.5" y2="458.5"/>
</svg>
