<?xml version="1.0" encoding="UTF-8"?>
<svg id="Warstwa_8" xmlns="http://www.w3.org/2000/svg" viewBox="0 0 1024 1024">
  <defs>
    <style>
      .cls-1 {
        stroke: #fff;
        stroke-miterlimit: 10;
      }

      .cls-1, .cls-2 {
        fill: #fff;
      }
    </style>
  </defs>
  <path class="cls-1" d="M635.59,209.26l-104.96-133.07c-3.89-4.93-11.37-4.93-15.26,0l-104.96,133.07c-5.03,6.37-.49,15.74,7.63,15.74h57.96v168.28c0,5.37,4.35,9.72,9.72,9.72h75.56c5.37,0,9.72-4.35,9.72-9.72v-168.28h56.96c8.12,0,12.66-9.36,7.63-15.74Z"/>
  <rect class="cls-2" x="98.5" y="488" width="850" height="55" rx="27.5" ry="27.5"/>
  <path class="cls-2" d="M163,585v343h98v-74h523v74h98v-343H163ZM716,765.5c0,15.19-5.61,27.5-12.54,27.5h-362.43c-6.92,0-12.54-12.31-12.54-27.5h0c0-15.19,5.61-27.5,12.54-27.5h362.43c6.92,0,12.54,12.31,12.54,27.5h0ZM717,663.5c0,15.19-5.61,27.5-12.54,27.5h-362.43c-6.92,0-12.54-12.31-12.54-27.5h0c0-15.19,5.61-27.5,12.54-27.5h362.43c6.92,0,12.54,12.31,12.54,27.5h0Z"/>
</svg>