<?xml version="1.0" encoding="UTF-8"?>
<svg id="Warstwa_6" xmlns="http://www.w3.org/2000/svg" viewBox="0 0 1024 1024">
  <defs>
    <style>
      .cls-1 {
        stroke-width: 34px;
      }

      .cls-1, .cls-2 {
        fill: #fff;
        stroke: #fff;
        stroke-miterlimit: 10;
      }
    </style>
  </defs>
  <g>
    <path class="cls-2" d="M701.9,702.56c-9.95-49.21-46.33-79.45-83.07-69.04l-226.02,64.07c-9.51,2.7-19.33,2.7-28.86.04l-224.46-63.02c-37.13-10.44-73.73,20.63-83.12,70.56l-19.97,106.15c-11.51,61.16,22.53,120.71,68.98,120.64l549.69-.89c46.85-.08,80.77-60.69,68.33-122.13l-21.51-106.37Z"/>
    <path class="cls-2" d="M379.09,226.94c-105.98.17-191.77,86.23-191.59,192.22.17,106,86.23,191.78,192.22,191.61,106-.17,191.78-86.23,191.61-192.23-.17-105.98-86.23-191.77-192.23-191.59Z"/>
  </g>
  <path class="cls-1" d="M831.42,319.13h89.24c12.29,0,23.84-4.78,32.52-13.47,8.69-8.69,13.47-20.24,13.47-32.52,0-25.36-20.63-45.99-45.99-45.99h-89.24v-89.24c0-12.29-4.78-23.84-13.47-32.52-8.69-8.69-20.24-13.47-32.52-13.47-12.29,0-23.84,4.78-32.52,13.47-8.69,8.69-13.47,20.24-13.47,32.52v89.24h-89.24c-25.36,0-45.99,20.63-45.99,45.99,0,12.29,4.78,23.84,13.47,32.52,8.69,8.69,20.24,13.47,32.52,13.47h89.24v89.24c0,12.68,5.16,24.18,13.49,32.51,8.33,8.33,19.83,13.49,32.51,13.49,25.36,0,45.99-20.63,45.99-45.99v-89.24ZM785.43,441.54c-18.29,0-33.16-14.88-33.17-33.17v-102.06h-12.82s-89.24,0-89.24,0c-8.86,0-17.19-3.45-23.45-9.72s-9.72-14.59-9.72-23.45c0-18.29,14.88-33.17,33.17-33.17h89.24s12.82,0,12.82,0v-102.06c0-8.86,3.45-17.19,9.72-23.45,6.26-6.26,14.59-9.72,23.45-9.72,8.86,0,17.19,3.45,23.45,9.72,6.27,6.27,9.72,14.59,9.72,23.45v89.24s0,12.82,0,12.82h12.82s89.24,0,89.24,0c9.14,0,17.43,3.72,23.44,9.73,6,6,9.73,14.3,9.73,23.44,0,8.86-3.45,17.19-9.72,23.45-6.27,6.27-14.59,9.72-23.45,9.72h-89.24s-12.82,0-12.82,0v102.06c0,18.28-14.88,33.16-33.17,33.17Z"/>
</svg>