<?xml version="1.0" encoding="UTF-8"?>
<svg id="Warstwa_1" xmlns="http://www.w3.org/2000/svg" viewBox="0 0 1024 1024">
  <defs>
    <style>
      .cls-1, .cls-2, .cls-3 {
        fill: #1d1d1b;
      }

      .cls-4 {
        stroke-width: 31px;
      }

      .cls-4, .cls-5, .cls-6, .cls-7, .cls-8, .cls-2, .cls-3 {
        stroke: #1d1d1b;
        stroke-miterlimit: 10;
      }

      .cls-4, .cls-6, .cls-8 {
        fill: none;
      }

      .cls-5, .cls-7 {
        fill: #fff;
      }

      .cls-5, .cls-2 {
        stroke-width: 25px;
      }

      .cls-6 {
        stroke-width: 29px;
      }

      .cls-7, .cls-3 {
        stroke-width: 26px;
      }

      .cls-8 {
        stroke-width: 28px;
      }
    </style>
  </defs>
  <g>
    <path class="cls-7" d="M700.23,904.93l-394.2-1.36c-44.1-.16-76.1-29.62-64.73-59.63l157.8-360.39,4.97-11.35h3.72v25.92l-153.14,349.77c-4.08,11.06.61,19.93,5.28,25.45,9.59,11.31,26.84,18.1,46.16,18.17l394.2,1.37h.29c19.29,0,36.58-6.72,46.26-18,4.72-5.5,9.48-14.35,5.5-25.41l-161.77-356.03v-21.23h5.5l5.49,12.08,164.1,361.19c11.27,30.15-21.16,59.62-65.44,59.46Z"/>
    <path class="cls-3" d="M779.12,841.8l-166.73-367.02-5.71-12.57-.94-2.07h-15.17v33.29l161.77,356.03c3.98,11.06-.78,19.91-5.5,25.41-9.68,11.28-26.97,18-46.26,18h-.29l-394.2-1.37c-19.32-.06-36.57-6.86-46.16-18.17-4.67-5.52-9.36-14.39-5.28-25.45l153.14-349.77v-37.99h-13.52l-5.7,13.02-160.5,366.57-.2.51c-6.06,16-2.72,33.23,9.19,47.26,14.86,17.53,40.62,28.05,68.9,28.14l394.2,1.37h.4c28.26,0,54.05-10.39,69.04-27.86,12.05-14.03,15.51-31.28,9.51-47.34Z"/>
  </g>
  <g>
    <path class="cls-5" d="M674.51,396.25l-67.82,59.29-10.6,9.28-5.5-.02v-11.84l73.08-63.87c2.65-2.84,1.99-4.87,1.09-6.32-2.68-4.37-11.82-9.09-25.54-9.09h-268.12c-13.8,0-22.93,4.74-25.58,9.14-.91,1.52-1.56,3.65,1.54,6.67l60.74,59.45v15.25h-2.6s-10.8-10.57-10.8-10.57l-58.31-57.08c-15.49-15.15,3.94-34.05,35.01-34.05h268.12c30.8,0,50.27,18.63,35.3,33.77Z"/>
    <path class="cls-2" d="M690.14,372.96c-8.08-13.17-28.08-21.68-50.93-21.68h-268.12c-23.02,0-43.07,8.6-51.06,21.89-6.03,10.03-4.13,21.4,5.08,30.41l63.46,62.11,9.87,9.66h.66l8.69.03v-26.45l-60.74-59.45c-3.1-3.03-2.45-5.15-1.54-6.67,2.65-4.4,11.78-9.14,25.58-9.14h268.12c13.71,0,22.85,4.71,25.54,9.09.9,1.45,1.56,3.48-1.09,6.32l-73.08,63.87v23.04l11,.04h.73l10.09-8.83,72.57-63.42.65-.61c9.04-9.15,10.69-20.16,4.53-30.21Z"/>
  </g>
  <path class="cls-1" d="M631.09,847.37h-256.36c-24.13,0-41.17-28.96-33.54-57.01l30.37-111.62c4.81-17.69,18.32-29.62,33.54-29.62h195.62c15.22,0,28.73,11.93,33.54,29.62l30.37,111.62c7.63,28.05-9.41,57.01-33.54,57.01Z"/>
  <ellipse class="cls-6" cx="386.5" cy="203.85" rx="45" ry="43.52"/>
  <ellipse class="cls-4" cx="482" cy="357.12" rx="58.5" ry="56.57"/>
  <ellipse class="cls-8" cx="613" cy="169.52" rx="45" ry="43.52"/>
</svg>