<?xml version="1.0" encoding="UTF-8"?>
<svg id="Warstwa_3" xmlns="http://www.w3.org/2000/svg" viewBox="0 0 1024 1024">
  <defs>
    <style>
      .cls-1 {
        stroke-width: 35px;
      }

      .cls-1, .cls-2 {
        fill: none;
        stroke: #312783;
        stroke-miterlimit: 10;
      }

      .cls-2 {
        stroke-width: 62px;
      }

      .cls-3 {
        fill: #312783;
      }
    </style>
  </defs>
  <circle class="cls-1" cx="513.5" cy="492.5" r="223"/>
  <circle class="cls-2" cx="513.5" cy="494.5" r="132"/>
  <path class="cls-3" d="M944.25,497.7h0c0-61.83-50.12-111.95-111.95-111.95h0c-2.95-9.21-6.3-18.3-10.06-27.28h0c47.42-39.79,53.6-110.48,13.82-157.9h0c-32.63-38.89-90.61-43.96-129.5-11.33l-15.51,13.01c-16.18-10.37-33.25-19.36-51.12-26.92-9.35-3.95-18.83-7.48-28.43-10.56h0c0-61.73-50.05-111.78-111.78-111.78h0c-50.93,0-92.22,41.29-92.22,92.22v17.99c-11.31,3.44-22.46,7.49-33.43,12.13-16.82,7.12-32.93,15.5-48.27,25.11h0c-46.27-38.82-115.24-32.79-154.06,13.48h0c-33.6,40.04-28.38,99.74,11.66,133.34l9.67,8.11c-.25.56-.49,1.12-.73,1.69-3.99,9.43-7.54,19-10.64,28.68h0c-59.07,0-106.95,47.88-106.95,106.95h0c0,53.6,43.45,97.05,97.05,97.05h8.49c3.25,10.66,7.05,21.19,11.37,31.55l-5.2,4.37c-41.73,35.02-47.17,97.23-12.15,138.96h0c37.4,44.58,103.86,50.39,148.44,12.98h0c16.25,10.42,33.39,19.46,51.33,27.05,10.97,4.64,22.12,8.69,33.43,12.13v8.99c0,53.42,43.3,96.72,96.72,96.72h0c59.25,0,107.28-48.03,107.28-107.28h0c9.6-3.08,19.08-6.61,28.43-10.56,18.98-8.03,37.07-17.68,54.15-28.87l11.1,9.31c39.65,33.27,98.76,28.1,132.03-11.55h0c39.15-46.66,33.07-116.22-13.59-155.37h0c3.8-9.36,7.16-18.84,10.09-28.43h18.49c50.84,0,92.05-41.21,92.05-92.05ZM806.61,554.75c-2.57,11.94-5.85,23.62-9.78,35-.53,1.54-1.07,3.07-1.62,4.59-4.18,11.51-9.03,22.69-14.51,33.51l27.56,23.13,3.44,2.89c26.01,21.82,29.4,60.59,7.58,86.6l-7.11,8.47c-21.82,26.01-60.59,29.4-86.6,7.58l-2.46-2.07-27.47-23.05c-9.51,7.45-19.47,14.36-29.83,20.66-17.09,10.39-35.26,19.16-54.31,26.09-11.37,4.14-23.05,7.62-35,10.4v37.48c0,33.95-27.52,61.47-61.47,61.47h-11.06c-33.95,0-61.47-27.52-61.47-61.47v-36.37c-11.94-2.56-23.62-5.82-35-9.74-19.79-6.81-38.66-15.59-56.39-26.11-10.47-6.21-20.53-13.02-30.15-20.39l-27.53,23.1h0c-26.01,21.82-64.78,18.43-86.6-7.58l-7.11-8.47c-21.82-26.01-18.43-64.78,7.58-86.6h0s27.51-23.08,27.51-23.08c-5.58-10.73-10.54-21.82-14.83-33.25-.98-2.58-1.91-5.17-2.81-7.79-3.93-11.38-7.21-23.06-9.78-35h-36.17c-33.95,0-61.47-27.52-61.47-61.47v-11.06c0-33.95,27.52-61.47,61.47-61.47h37.17c2.77-11.95,6.24-23.63,10.37-35,.81-2.25,1.65-4.48,2.52-6.7,4.41-11.33,9.48-22.33,15.17-32.96l-27.45-23.03-1.7-1.43c-26.01-21.82-29.4-60.59-7.58-86.6l7.11-8.47c21.82-26.01,60.59-29.4,86.6-7.58l2.75,2.31,27.6,23.16c9.73-7.29,19.91-14.01,30.49-20.11,16.81-9.7,34.62-17.85,53.23-24.26,11.38-3.92,23.06-7.18,35-9.74v-40.87c0-33.95,27.52-61.47,61.47-61.47h11.06c33.95,0,61.47,27.52,61.47,61.47v41.98c11.95,2.78,23.63,6.26,35,10.4,17.89,6.51,35.01,14.64,51.17,24.22,10.48,6.19,20.55,13,30.18,20.37l27.54-23.11,5.18-4.35c26.01-21.82,64.78-18.43,86.6,7.58l7.11,8.47c21.82,26.01,18.43,64.78-7.58,86.6l-5.11,4.29-27.51,23.08c5.59,10.72,10.56,21.81,14.86,33.23.44,1.17.87,2.34,1.3,3.52,4.13,11.37,7.6,23.05,10.37,35h42.17c33.95,0,61.47,27.52,61.47,61.47v11.06c0,33.95-27.52,61.47-61.47,61.47h-41.17Z"/>
</svg>