<?xml version="1.0" encoding="UTF-8"?>
<svg id="Warstwa_4" xmlns="http://www.w3.org/2000/svg" viewBox="0 0 1024 1024">
  <path d="M341.65,264.48h-201.88c-18.32,0-33.17-7.76-33.17-17.33v-10.65c0-9.57,14.85-17.33,33.17-17.33h201.88c18.32,0,33.17,7.76,33.17,17.33v10.65c0,9.57-14.85,17.33-33.17,17.33Z"/>
  <g>
    <rect x="46.17" y="557.65" width="461.72" height="72.92" rx="27.89" ry="27.89" transform="translate(-337.4 365.66) rotate(-44.61)"/>
    <rect x="474.59" y="382.92" width="72.92" height="340.33" rx="27.89" ry="27.89" transform="translate(-241.34 521.61) rotate(-44.87)"/>
    <rect x="530.83" y="479.6" width="514.95" height="72.93" rx="27.89" ry="27.89" transform="translate(-143.71 654.25) rotate(-41.64)"/>
    <path d="M135.07,764.32v-213.22c0-19.35-12.49-35.03-27.89-35.03h-17.15c-15.4,0-27.89,15.69-27.89,35.03v213.22c0,19.35,12.49,35.03,27.89,35.03h17.15c15.4,0,27.89-15.69,27.89-35.03Z"/>
    <path d="M345.65,771.66v-17.15c0-15.4-15.45-27.89-34.51-27.89H101.14c-19.06,0-34.51,12.49-34.51,27.89v17.15c0,15.4,15.45,27.89,34.51,27.89h210c19.06,0,34.51-12.49,34.51-27.89Z"/>
  </g>
</svg>