<?xml version="1.0" encoding="UTF-8"?>
<svg id="Warstwa_3" xmlns="http://www.w3.org/2000/svg" viewBox="0 0 1024 1024">
  <defs>
    <style>
      .cls-1 {
        fill: #fff;
      }
    </style>
  </defs>
  <path class="cls-1" d="M198.95,391.92c.04-.21.05-.43.06-.64.17-59.83,48.73-108.28,108.6-108.28h504.79c8.54,0,16.84.99,24.81,2.85,7.27,1.7,14.26,4.13,20.88,7.21,2.48,1.15,5.37-.32,5.83-3.01v-.07c.05-.25.08-.5.08-.75-.17-51.28-35.89-94.18-83.79-105.38-7.97-1.86-16.27-2.85-24.81-2.85H250.6c-59.87,0-108.43,48.45-108.6,108.28,0,.22-.02.43-.06.64l-39.08,228.08-16.8,98.03c-.04.25-.06.49-.06.74.13,39.43,21.28,73.9,52.82,92.82,2.48,1.49,5.69.02,6.18-2.84l14.87-86.75,39.08-228.08Z"/>
  <path class="cls-1" d="M900.99,339.49c-8.05-4.25-16.7-7.52-25.79-9.64-7.97-1.86-16.27-2.85-24.81-2.85h-504.79c-59.98,0-108.6,48.62-108.6,108.6l-39.14,228.39-15.85,92.51-1.01,5.89c0,59.98,48.62,108.6,108.6,108.6h504.79c44.86,0,83.36-27.2,99.93-66,4.62-10.82,7.53-22.55,8.4-34.85.18-2.56.28-5.15.28-7.76l56-326.79c0-41.71-23.52-77.92-58.01-96.11ZM804,701c0,13.81-11.19,25-25,25h-454c-13.81,0-25-11.19-25-25h0c0-13.81,11.19-25,25-25h454c13.81,0,25,11.19,25,25h0ZM840,497c0,13.81-11.19,25-25,25h-454c-13.81,0-25-11.19-25-25h0c0-13.81,11.19-25,25-25h454c13.81,0,25,11.19,25,25h0Z"/>
</svg>