<?xml version="1.0" encoding="UTF-8"?>
<svg id="Warstwa_12" xmlns="http://www.w3.org/2000/svg" viewBox="0 0 1024 1024">
  <path d="M322.29,126c-21.74,0-42.37,9.6-56.38,26.23l-121.91,144.77h284.19l19.73-171h-125.63Z"/>
  <path d="M864,297l-121.91-144.77c-14-16.63-34.64-26.23-56.38-26.23h-125.63l19.73,171h284.19Z"/>
  <path d="M839.02,324h-250.02v108l-40.5,40.5-40.5-40.5-40.5,40.5-40.5-40.5v-108h-250.02c-16,0-28.98,12.97-28.98,28.98v518.05c0,16,12.97,28.98,28.98,28.98h662.05c16,0,28.98-12.97,28.98-28.98V352.98c0-16-12.97-28.98-28.98-28.98ZM814,828h-234v-99h234v99Z"/>
</svg>