<?xml version="1.0" encoding="UTF-8"?>
<svg id="Warstwa_8" xmlns="http://www.w3.org/2000/svg" viewBox="0 0 1024 1024">
  <defs>
    <style>
      .cls-1 {
        fill: #1d1d1b;
      }

      .cls-2 {
        fill: #fff;
      }

      .cls-3 {
        stroke: #1d1d1b;
        stroke-miterlimit: 10;
      }
    </style>
  </defs>
  <rect class="cls-3" x="198.5" y="304.5" width="635" height="452"/>
  <g>
    <rect class="cls-2" x="492.5" y="441.5" width="40" height="179" rx="20" ry="20"/>
    <rect class="cls-2" x="426" y="511" width="179" height="40" rx="20" ry="20"/>
  </g>
  <g>
    <rect class="cls-1" x="755" y="119" width="171" height="30" rx="15" ry="15"/>
    <rect class="cls-1" x="896" y="121" width="30" height="171" rx="15" ry="15"/>
  </g>
  <g>
    <rect class="cls-1" x="113" y="120" width="171" height="30" rx="15" ry="15"/>
    <rect class="cls-1" x="113" y="122" width="30" height="171" rx="15" ry="15"/>
  </g>
  <g>
    <rect class="cls-1" x="113" y="900" width="171" height="30" rx="15" ry="15"/>
    <rect class="cls-1" x="113" y="757" width="30" height="171" rx="15" ry="15"/>
  </g>
  <g>
    <rect class="cls-1" x="755" y="899" width="171" height="30" rx="15" ry="15"/>
    <rect class="cls-1" x="896" y="756" width="30" height="171" rx="15" ry="15"/>
  </g>
</svg>