<?xml version="1.0" encoding="utf-8"?>
<!-- Generator: Adobe Illustrator 28.5.0, SVG Export Plug-In . SVG Version: 9.03 Build 54727)  -->
<svg version="1.0" id="Warstwa_2" xmlns="http://www.w3.org/2000/svg" xmlns:xlink="http://www.w3.org/1999/xlink" x="0px" y="0px"
	 viewBox="0 0 1024 1024" enable-background="new 0 0 1024 1024" xml:space="preserve">
<path d="M859.37,389.12l-13.23-7.6v74.1c-25.38-155.9-166.06-278.68-335.25-278.68c-163.55,0-300.44,114.72-332.33,263.18v-50.79
	l-20.04,11.51c17.42-55.67,48.57-107.2,91.78-148.55C319.89,185.69,412.44,149,510.88,149s190.99,36.69,260.6,103.3
	C811.64,290.74,841.38,337.95,859.37,389.12z"/>
<polygon fill="none" stroke="#000000" stroke-width="25" stroke-miterlimit="10" points="178.55,389.34 178.55,679.99 70.5,628.01 
	70.5,451.39 158.51,400.86 "/>
<polygon fill="none" stroke="#000000" stroke-width="25" stroke-miterlimit="10" points="954.18,443.56 954.18,620.18 
	846.13,672.17 846.13,381.52 859.37,389.12 "/>
<ellipse fill="none" stroke="#000000" stroke-width="25" stroke-miterlimit="10" cx="511.46" cy="570.44" rx="262.24" ry="294.56"/>
<path fill="none" stroke="#000000" stroke-width="25" stroke-miterlimit="10" d="M846.5,605.5
	c0.43,24.22-170.42,114.82-272.54,94.05"/>
<ellipse cx="536" cy="696.2" rx="58.99" ry="40.24"/>
<g>
	<path d="M350.67,510.01l81.53,37.78v40.98l-115.66-62.91v-32.55l115.66-62.74v40.98L350.67,510.01z"/>
	<path d="M478.36,637.51h-26.39l79.18-266.64h26.39L478.36,637.51z"/>
	<path d="M666.71,509.17l-85.4-38.28v-40.31l119.39,62.74v32.55L581.31,588.6V548.3L666.71,509.17z"/>
</g>
</svg>
