<?xml version="1.0" encoding="UTF-8"?>
<svg id="Warstwa_4" xmlns="http://www.w3.org/2000/svg" viewBox="0 0 1024 1024">
  <rect x="-5.16" y="615.1" width="461.72" height="72.92" rx="27.89" ry="27.89" transform="translate(-392.53 346.17) rotate(-44.61)"/>
  <rect x="423.26" y="440.38" width="72.92" height="340.33" rx="27.89" ry="27.89" transform="translate(-296.82 502.14) rotate(-44.87)"/>
  <rect x="479.5" y="537.06" width="514.95" height="72.93" rx="27.89" ry="27.89" transform="translate(-194.86 634.66) rotate(-41.64)"/>
  <path d="M941.5,416.45h-213.22c-19.35,0-35.03-12.49-35.03-27.89v-17.15c0-15.4,15.69-27.89,35.03-27.89h213.22c19.35,0,35.03,12.49,35.03,27.89v17.15c0,15.4-15.69,27.89-35.03,27.89Z"/>
  <path d="M358.76,289.82h-201.88c-18.32,0-33.17-7.76-33.17-17.33v-10.65c0-9.57,14.85-17.33,33.17-17.33h201.88c18.32,0,33.17,7.76,33.17,17.33v10.65c0,9.57-14.85,17.33-33.17,17.33Z"/>
  <path d="M235.17,373.09v-201.88c0-18.32,7.76-33.17,17.33-33.17h10.65c9.57,0,17.33,14.85,17.33,33.17v201.88c0,18.32-7.76,33.17-17.33,33.17h-10.65c-9.57,0-17.33-14.85-17.33-33.17Z"/>
  <path d="M948.83,627.03h-17.15c-15.4,0-27.89-15.45-27.89-34.51v-210c0-19.06,12.49-34.51,27.89-34.51h17.15c15.4,0,27.89,15.45,27.89,34.51v210c0,19.06-12.49,34.51-27.89,34.51Z"/>
</svg>