<?xml version="1.0" encoding="UTF-8"?>
<svg id="Warstwa_5" xmlns="http://www.w3.org/2000/svg" viewBox="0 0 1024 1024">
  <defs>
    <style>
      .cls-1 {
        fill: #020004;
      }
    </style>
  </defs>
  <path class="cls-1" d="M739.81,119h-26.81v191.05c0,24.27-19.68,43.95-43.95,43.95h-315.11c-24.27,0-43.95-19.68-43.95-43.95V119h-129.48c-24.59,0-44.52,19.93-44.52,44.52v670.96c0,24.59,19.93,44.52,44.52,44.52h663.96c24.59,0,44.52-19.93,44.52-44.52V249.18l-149.19-130.18ZM282,810.3c0,11.99-9.72,21.7-21.7,21.7h-50.6c-11.99,0-21.7-9.72-21.7-21.7v-78.6c0-11.99,9.72-21.7,21.7-21.7h50.6c11.99,0,21.7,9.72,21.7,21.7v78.6ZM512.75,812c-110.6,0-200.25-89.65-200.25-200.25s89.65-200.25,200.25-200.25,200.25,89.65,200.25,200.25-89.65,200.25-200.25,200.25ZM835,815.3c0,11.99-9.72,21.7-21.7,21.7h-50.6c-11.99,0-21.7-9.72-21.7-21.7v-78.6c0-11.99,9.72-21.7,21.7-21.7h50.6c11.99,0,21.7,9.72,21.7,21.7v78.6Z"/>
  <path class="cls-1" d="M379.95,335.5h267.11c31.12,0,50.45-25.32,50.45-56.45V119h-374v160.05c0,31.12,25.32,56.45,56.45,56.45ZM348.5,144h324v135.05c0,17.34-8.11,31.45-25.45,31.45h-267.11c-17.34,0-31.45-14.11-31.45-31.45v-135.05Z"/>
  <rect class="cls-1" x="384.5" y="163" width="69" height="122"/>
  <path class="cls-1" d="M603.4,610.75c-12.5-12.5-32.76-12.5-45.25,0l-12.14,12.14v-123.89c0-17.67-14.33-32-32-32h0c-17.67,0-32,14.33-32,32v128.25l-16.5-16.5c-12.5-12.5-32.76-12.5-45.25,0h0c-12.5,12.5-12.5,32.76,0,45.25,0,0,80.37,78.28,88.57,78.27,1.72,0,3.44-.14,5.14-.41,10.88-1,89.43-77.85,89.43-77.85,12.5-12.5,12.5-32.76,0-45.25h0Z"/>
</svg>