<?xml version="1.0" encoding="utf-8"?>
<!-- Generator: Adobe Illustrator 28.5.0, SVG Export Plug-In . SVG Version: 9.03 Build 54727)  -->
<svg version="1.0" id="Warstwa_1" xmlns="http://www.w3.org/2000/svg" xmlns:xlink="http://www.w3.org/1999/xlink" x="0px" y="0px"
	 viewBox="0 0 1024 1024" enable-background="new 0 0 1024 1024" xml:space="preserve">
<path fill="none" stroke="#000000" stroke-width="25" stroke-miterlimit="10" d="M631.37,702.5l-254.13,1l-75-296.01
	c-16.61-109.91,76.1-207.99,196.62-207.99h11.7c120.99,0,213.84,98.8,196.46,209.05L631.37,702.5z"/>
<line fill="none" stroke="#000000" stroke-width="25" stroke-miterlimit="10" x1="376.16" y1="757.5" x2="631.37" y2="757.5"/>
<line fill="none" stroke="#000000" stroke-width="25" stroke-miterlimit="10" x1="396.25" y1="810.5" x2="611.28" y2="810.5"/>
<line fill="none" stroke="#000000" stroke-width="25" stroke-miterlimit="10" x1="426.12" y1="865.5" x2="582.5" y2="865.5"/>
<path fill="none" stroke="#000000" stroke-width="25" stroke-miterlimit="10" d="M506.32,963.5h-6.19c-19.88,0-36-16.12-36-36v-54
	h78.19v54C542.32,947.38,526.2,963.5,506.32,963.5z"/>
<line fill="#81BB27" stroke="#000000" stroke-width="25" stroke-miterlimit="10" x1="503.22" y1="152" x2="503.77" y2="63"/>
<line fill="#FFFFFF" stroke="#000000" stroke-width="25" stroke-miterlimit="10" x1="660.27" y1="189.79" x2="729" y2="127.21"/>
<line fill="#81BB27" stroke="#000000" stroke-width="25" stroke-miterlimit="10" x1="347.42" y1="190.14" x2="279.46" y2="126.86"/>
</svg>
